<svg width="2425" height="1662" viewBox="0 0 2425 1662" fill="none" xmlns="http://www.w3.org/2000/svg">
<g opacity="0.2">
<path opacity="0.0144928" fill-rule="evenodd" clip-rule="evenodd" d="M2090.76 1161.6L1888.43 1416.72C1882.61 1424.05 1872.65 1426.65 1863.99 1423.09L1562.84 1299.3C1557.72 1297.19 1553.63 1293.15 1551.48 1288.05L1369.9 858.778C1368.21 854.769 1367.8 850.333 1368.73 846.082L1456.51 447.414C1458.21 439.707 1464.08 433.601 1471.72 431.609L1746.47 359.947C1754.11 357.956 1762.22 360.414 1767.46 366.311L2038.77 671.321C2041.67 674.573 2043.48 678.644 2043.96 682.97L2095.17 1146.25C2095.78 1151.75 2094.19 1157.27 2090.76 1161.6ZM1891.56 1419.2C1884.64 1427.93 1872.77 1431.03 1862.47 1426.79L1561.31 1303C1555.22 1300.49 1550.36 1295.68 1547.79 1289.61L1366.22 860.336C1364.2 855.564 1363.71 850.282 1364.83 845.222L1452.6 446.554C1454.62 437.378 1461.62 430.11 1470.71 427.739L1745.46 356.077C1754.55 353.706 1764.21 356.632 1770.45 363.652L2041.76 668.662C2045.21 672.534 2047.36 677.38 2047.93 682.531L2099.15 1145.81C2099.87 1152.36 2097.98 1158.93 2093.89 1164.09L1891.56 1419.2Z" fill="url(#paint0_linear_116_771)"/>
<path opacity="0.0289855" fill-rule="evenodd" clip-rule="evenodd" d="M2051.96 1179.5L1837.72 1421.58C1831.53 1428.57 1821.47 1430.64 1813.03 1426.66L1520.65 1288.74C1515.64 1286.37 1511.77 1282.12 1509.88 1276.91L1352.27 842.822C1350.78 838.718 1350.6 834.252 1351.77 830.045L1459.88 440.052C1461.99 432.456 1468.17 426.68 1475.89 425.092L1752.36 368.248C1760.08 366.661 1768.04 369.53 1772.97 375.679L2026.18 691.384C2028.91 694.79 2030.51 698.962 2030.76 703.321L2057.2 1164.38C2057.52 1169.91 2055.63 1175.35 2051.96 1179.5ZM1840.71 1424.23C1833.35 1432.56 1821.37 1435.02 1811.32 1430.28L1518.95 1292.35C1512.98 1289.54 1508.37 1284.48 1506.12 1278.28L1348.51 844.187C1346.73 839.302 1346.52 833.985 1347.91 828.977L1456.03 438.983C1458.53 429.941 1465.89 423.064 1475.08 421.174L1751.56 364.33C1760.75 362.44 1770.22 365.856 1776.09 373.176L2029.3 688.881C2032.55 692.936 2034.46 697.903 2034.76 703.092L2061.19 1164.15C2061.57 1170.74 2059.33 1177.21 2054.95 1182.15L1840.71 1424.23Z" fill="url(#paint1_linear_116_771)"/>
<path opacity="0.0434783" fill-rule="evenodd" clip-rule="evenodd" d="M2012.53 1196.37L1787.17 1424.88C1780.64 1431.51 1770.52 1433.04 1762.31 1428.65L1479.36 1277.18C1474.47 1274.56 1470.81 1270.11 1469.19 1264.8L1335.55 827.216C1334.27 823.027 1334.33 818.544 1335.73 814.393L1463.51 434.1C1466.02 426.639 1472.49 421.206 1480.27 420.026L1757.67 377.983C1765.45 376.803 1773.24 380.075 1777.85 386.459L2012.58 711.808C2015.14 715.359 2016.53 719.623 2016.55 724.002L2018.57 1181.53C2018.6 1187.08 2016.43 1192.42 2012.53 1196.37ZM1790.02 1427.69C1782.24 1435.58 1770.19 1437.4 1760.42 1432.17L1477.47 1280.7C1471.65 1277.58 1467.29 1272.28 1465.36 1265.96L1331.72 828.384C1330.2 823.398 1330.28 818.061 1331.94 813.119L1459.72 432.826C1462.7 423.944 1470.41 417.476 1479.67 416.072L1757.07 374.028C1766.34 372.624 1775.61 376.519 1781.09 384.118L2015.82 709.468C2018.87 713.695 2020.53 718.771 2020.55 723.984L2022.57 1181.51C2022.6 1188.12 2020.02 1194.47 2015.38 1199.18L1790.02 1427.69Z" fill="url(#paint2_linear_116_771)"/>
<path opacity="0.057971" fill-rule="evenodd" clip-rule="evenodd" d="M1972.52 1212.19L1736.88 1426.63C1730.02 1432.88 1719.86 1433.88 1711.91 1429.09L1439 1264.67C1434.24 1261.8 1430.81 1257.16 1429.47 1251.77L1319.73 812.004C1318.67 807.742 1318.97 803.254 1320.59 799.171L1467.32 429.559C1470.22 422.253 1476.96 417.179 1484.78 416.409L1762.32 389.106C1770.15 388.337 1777.75 392.001 1782.01 398.602L1997.96 732.536C2000.34 736.225 2001.51 740.568 2001.3 744.956L1979.36 1197.67C1979.09 1203.23 1976.63 1208.45 1972.52 1212.19ZM1739.57 1429.59C1731.4 1437.03 1719.31 1438.22 1709.85 1432.51L1436.94 1268.1C1431.27 1264.68 1427.19 1259.16 1425.58 1252.74L1315.85 812.973C1314.58 807.899 1314.94 802.556 1316.87 797.695L1463.6 428.083C1467.06 419.385 1475.08 413.344 1484.39 412.428L1761.93 385.125C1771.25 384.209 1780.29 388.571 1785.37 396.43L2001.32 730.364C2004.16 734.755 2005.55 739.926 2005.3 745.149L1983.36 1197.87C1983.04 1204.48 1980.11 1210.69 1975.21 1215.15L1739.57 1429.59Z" fill="url(#paint3_linear_116_771)"/>
<path opacity="0.0724638" fill-rule="evenodd" clip-rule="evenodd" d="M1932 1226.94L1686.93 1426.87C1679.76 1432.72 1669.6 1433.18 1661.92 1428.01L1399.63 1251.28C1395.01 1248.17 1391.82 1243.35 1390.75 1237.89L1304.78 797.231C1303.93 792.906 1304.47 788.426 1306.31 784.423L1471.23 426.424C1474.52 419.294 1481.51 414.591 1489.35 414.232L1766.25 401.57C1774.1 401.211 1781.48 405.256 1785.4 412.057L1982.31 753.51C1984.51 757.328 1985.46 761.741 1985.01 766.125L1939.61 1212.79C1939.05 1218.33 1936.31 1223.42 1932 1226.94ZM1689.46 1429.97C1680.92 1436.93 1668.82 1437.49 1659.68 1431.33L1397.39 1254.6C1391.89 1250.89 1388.09 1245.16 1386.82 1238.65L1300.85 797.997C1299.84 792.849 1300.49 787.514 1302.68 782.75L1467.6 424.75C1471.51 416.262 1479.83 410.663 1489.16 410.237L1766.07 397.574C1775.41 397.147 1784.2 401.963 1788.87 410.059L1985.78 751.512C1988.4 756.056 1989.52 761.31 1988.99 766.529L1943.59 1213.19C1942.92 1219.79 1939.66 1225.84 1934.52 1230.04L1689.46 1429.97Z" fill="url(#paint4_linear_116_771)"/>
<path opacity="0.0869565" fill-rule="evenodd" clip-rule="evenodd" d="M1891.02 1240.6L1637.39 1425.62C1629.93 1431.06 1619.8 1431 1612.41 1425.46L1361.27 1237.07C1356.81 1233.72 1353.86 1228.74 1353.08 1223.21L1290.66 782.939C1290.04 778.562 1290.81 774.101 1292.88 770.192L1475.17 424.685C1478.83 417.752 1486.05 413.433 1493.89 413.485L1769.39 415.321C1777.23 415.373 1784.38 419.788 1787.95 426.769L1965.63 774.674C1967.64 778.611 1968.35 783.081 1967.67 787.45L1899.39 1226.85C1898.54 1232.37 1895.52 1237.31 1891.02 1240.6ZM1639.75 1428.86C1630.87 1435.33 1618.8 1435.25 1610.01 1428.66L1358.87 1240.27C1353.56 1236.28 1350.05 1230.35 1349.12 1223.78L1286.7 783.501C1285.96 778.29 1286.88 772.98 1289.34 768.325L1471.63 422.819C1475.99 414.565 1484.58 409.423 1493.91 409.486L1769.41 411.321C1778.75 411.383 1787.27 416.638 1791.51 424.95L1969.19 772.854C1971.58 777.541 1972.44 782.864 1971.63 788.064L1903.35 1227.47C1902.33 1234.03 1898.74 1239.91 1893.38 1243.83L1639.75 1428.86Z" fill="url(#paint5_linear_116_771)"/>
<path opacity="0.101449" fill-rule="evenodd" clip-rule="evenodd" d="M1849.65 1253.15L1588.34 1422.93C1580.62 1427.95 1570.54 1427.35 1563.47 1421.46L1323.97 1222.09C1319.68 1218.52 1316.99 1213.38 1316.49 1207.82L1277.35 769.168C1276.95 764.75 1277.97 760.322 1280.25 756.516L1479.06 424.331C1483.08 417.614 1490.51 413.691 1498.32 414.153L1771.67 430.305C1779.48 430.767 1786.39 435.537 1789.59 442.681L1947.9 795.969C1949.72 800.016 1950.2 804.533 1949.29 808.873L1858.76 1239.86C1857.61 1245.33 1854.33 1250.11 1849.65 1253.15ZM1590.52 1426.29C1581.33 1432.26 1569.33 1431.55 1560.91 1424.54L1321.41 1225.16C1316.3 1220.91 1313.1 1214.8 1312.51 1208.17L1273.36 769.523C1272.89 764.265 1274.1 758.992 1276.81 754.462L1475.63 422.277C1480.42 414.28 1489.25 409.61 1498.56 410.16L1771.9 426.312C1781.21 426.861 1789.43 432.54 1793.24 441.045L1951.55 794.333C1953.71 799.151 1954.29 804.529 1953.21 809.696L1862.67 1240.68C1861.31 1247.19 1857.41 1252.88 1851.83 1256.51L1590.52 1426.29Z" fill="url(#paint6_linear_116_771)"/>
<path opacity="0.115942" fill-rule="evenodd" clip-rule="evenodd" d="M1807.95 1264.6L1539.86 1418.84C1531.91 1423.42 1521.9 1422.3 1515.15 1416.08L1287.77 1206.42C1283.65 1202.63 1281.22 1197.35 1281.02 1191.76L1264.81 755.955C1264.64 751.508 1265.89 747.125 1268.38 743.435L1482.83 425.344C1487.2 418.863 1494.81 415.344 1502.57 416.213L1773.03 446.462C1780.8 447.331 1787.44 452.443 1790.27 459.73L1929.14 817.338C1930.75 821.486 1931 826.038 1929.86 830.338L1817.77 1251.79C1816.34 1257.2 1812.8 1261.81 1807.95 1264.6ZM1541.86 1422.31C1532.39 1427.76 1520.48 1426.43 1512.44 1419.02L1285.05 1209.36C1280.16 1204.84 1277.27 1198.56 1277.02 1191.91L1260.81 756.103C1260.61 750.81 1262.1 745.591 1265.06 741.199L1479.51 423.108C1484.71 415.392 1493.77 411.204 1503.02 412.238L1773.47 442.487C1782.72 443.521 1790.63 449.607 1794 458.282L1932.87 815.89C1934.79 820.828 1935.09 826.247 1933.73 831.366L1821.64 1252.82C1819.93 1259.26 1815.72 1264.74 1809.95 1268.07L1541.86 1422.31Z" fill="url(#paint7_linear_116_771)"/>
<path opacity="0.130435" fill-rule="evenodd" clip-rule="evenodd" d="M1765.99 1274.93L1492.02 1413.39C1483.85 1417.52 1473.95 1415.88 1467.55 1409.35L1252.68 1190.12C1248.76 1186.12 1246.6 1180.71 1246.68 1175.11L1253.01 743.337C1253.07 738.873 1254.56 734.546 1257.25 730.984L1486.4 427.704C1491.1 421.476 1498.88 418.372 1506.58 419.644L1773.41 463.731C1781.12 465.004 1787.48 470.443 1789.93 477.853L1909.35 838.725C1910.75 842.963 1910.76 847.538 1909.39 851.785L1776.49 1262.65C1774.77 1267.98 1770.99 1272.4 1765.99 1274.93ZM1493.82 1416.96C1484.1 1421.88 1472.32 1419.93 1464.69 1412.15L1249.82 1192.92C1245.16 1188.15 1242.58 1181.72 1242.68 1175.05L1249.01 743.278C1249.08 737.964 1250.85 732.813 1254.06 728.573L1483.21 425.292C1488.81 417.878 1498.06 414.183 1507.23 415.698L1774.07 459.785C1783.23 461.3 1790.81 467.775 1793.73 476.597L1913.14 837.468C1914.81 842.513 1914.83 847.96 1913.2 853.016L1780.3 1263.88C1778.25 1270.22 1773.74 1275.49 1767.79 1278.5L1493.82 1416.96Z" fill="url(#paint8_linear_116_771)"/>
<path opacity="0.144928" fill-rule="evenodd" clip-rule="evenodd" d="M1723.81 1284.13L1444.88 1406.63C1436.53 1410.3 1426.76 1408.16 1420.71 1401.33L1218.74 1173.25C1215.02 1169.05 1213.14 1163.53 1213.51 1157.94L1241.9 731.347C1242.2 726.878 1243.92 722.62 1246.81 719.197L1489.7 431.385C1494.73 425.429 1502.64 422.747 1510.25 424.418L1772.78 482.049C1780.39 483.72 1786.45 489.47 1788.52 496.984L1888.52 860.073C1889.71 864.391 1889.49 868.977 1887.89 873.16L1734.98 1272.41C1732.97 1277.65 1728.95 1281.87 1723.81 1284.13ZM1446.49 1410.29C1436.55 1414.66 1424.92 1412.11 1417.72 1403.98L1215.75 1175.9C1211.32 1170.9 1209.08 1164.34 1209.52 1157.67L1237.91 731.081C1238.27 725.761 1240.31 720.693 1243.75 716.618L1486.65 428.806C1492.63 421.715 1502.05 418.521 1511.11 420.511L1773.63 478.142C1782.7 480.132 1789.91 486.977 1792.38 495.922L1892.38 859.011C1893.79 864.152 1893.53 869.611 1891.62 874.59L1738.72 1273.84C1736.33 1280.08 1731.54 1285.11 1725.42 1287.79L1446.49 1410.29Z" fill="url(#paint9_linear_116_771)"/>
<path opacity="0.15942" fill-rule="evenodd" clip-rule="evenodd" d="M1681.5 1292.21L1398.51 1398.61C1390 1401.82 1380.39 1399.17 1374.72 1392.07L1185.98 1155.89C1182.47 1151.5 1180.87 1145.89 1181.53 1140.31L1231.46 720.017C1231.99 715.554 1233.94 711.379 1237.02 708.105L1492.67 436.361C1498.01 430.692 1506.03 428.438 1513.54 430.502L1771.06 501.348C1778.56 503.412 1784.31 509.456 1785.99 517.054L1866.68 881.326C1867.65 885.714 1867.19 890.299 1865.36 894.405L1693.29 1281.09C1691.01 1286.23 1686.76 1290.23 1681.5 1292.21ZM1399.92 1402.36C1389.79 1406.17 1378.35 1403.02 1371.59 1394.57L1182.85 1158.39C1178.68 1153.16 1176.77 1146.48 1177.56 1139.83L1227.49 719.545C1228.12 714.232 1230.44 709.262 1234.11 705.364L1489.76 433.62C1496.11 426.872 1505.67 424.188 1514.6 426.645L1772.12 497.491C1781.06 499.948 1787.9 507.144 1789.9 516.189L1870.58 880.461C1871.74 885.685 1871.19 891.143 1869.02 896.031L1696.95 1282.72C1694.23 1288.83 1689.17 1293.6 1682.9 1295.96L1399.92 1402.36Z" fill="url(#paint10_linear_116_771)"/>
<path opacity="0.173913" fill-rule="evenodd" clip-rule="evenodd" d="M1639.1 1299.17L1352.98 1389.39C1344.33 1392.12 1334.91 1388.99 1329.61 1381.63L1154.4 1138.11C1151.11 1133.54 1149.79 1127.84 1150.75 1122.29L1221.64 709.377C1222.4 704.932 1224.58 700.85 1227.84 697.737L1495.24 442.597C1500.86 437.233 1508.99 435.412 1516.36 437.862L1768.23 521.558C1775.6 524.008 1781.02 530.33 1782.31 537.991L1843.83 902.43C1844.58 906.877 1843.88 911.448 1841.83 915.466L1651.49 1288.69C1648.93 1293.7 1644.47 1297.48 1639.1 1299.17ZM1354.18 1393.21C1343.89 1396.45 1332.67 1392.73 1326.37 1383.97L1151.15 1140.44C1147.24 1135 1145.67 1128.22 1146.8 1121.61L1217.7 708.7C1218.61 703.408 1221.2 698.549 1225.08 694.843L1492.48 439.703C1499.17 433.318 1508.84 431.149 1517.62 434.066L1769.49 517.762C1778.27 520.679 1784.72 528.205 1786.26 537.326L1847.77 901.764C1848.67 907.059 1847.83 912.5 1845.39 917.283L1655.05 1290.5C1652.01 1296.48 1646.69 1300.97 1640.3 1302.99L1354.18 1393.21Z" fill="url(#paint11_linear_116_771)"/>
<path opacity="0.188406" fill-rule="evenodd" clip-rule="evenodd" d="M1596.67 1305.03L1308.33 1379.03C1299.57 1381.28 1290.37 1377.67 1285.46 1370.08L1124.02 1119.97C1120.96 1115.23 1119.94 1109.46 1121.18 1103.96L1212.4 699.453C1213.4 695.038 1215.79 691.062 1219.23 688.119L1497.35 450.061C1503.24 445.017 1511.43 443.632 1518.66 446.46L1764.24 542.611C1771.46 545.439 1776.54 552.02 1777.44 559.725L1819.99 923.331C1820.51 927.827 1819.57 932.372 1817.3 936.289L1609.63 1295.2C1606.8 1300.08 1602.14 1303.62 1596.67 1305.03ZM1309.32 1382.9C1298.9 1385.58 1287.94 1381.29 1282.1 1372.25L1120.66 1122.14C1117.02 1116.5 1115.8 1109.63 1117.27 1103.08L1208.5 698.573C1209.68 693.317 1212.54 688.584 1216.63 685.08L1494.75 447.023C1501.76 441.017 1511.52 439.369 1520.12 442.736L1765.69 538.886C1774.29 542.253 1780.34 550.087 1781.41 559.26L1823.96 922.866C1824.58 928.218 1823.46 933.629 1820.77 938.293L1613.09 1297.21C1609.73 1303.02 1604.17 1307.23 1597.67 1308.9L1309.32 1382.9Z" fill="url(#paint12_linear_116_771)"/>
<path opacity="0.202899" fill-rule="evenodd" clip-rule="evenodd" d="M1554.29 1309.77L1264.62 1367.58C1255.79 1369.34 1246.81 1365.27 1242.32 1357.47L1094.85 1101.54C1092.03 1096.65 1091.3 1090.82 1092.83 1085.38L1203.7 690.27C1204.93 685.896 1207.54 682.039 1211.14 679.276L1498.93 458.714C1505.07 454.002 1513.31 453.057 1520.37 456.254L1759.05 564.432C1766.1 567.63 1770.82 574.45 1771.33 582.179L1795.17 943.977C1795.47 948.509 1794.29 953.016 1791.81 956.822L1567.77 1300.64C1564.69 1305.38 1559.83 1308.67 1554.29 1309.77ZM1265.41 1371.5C1254.89 1373.6 1244.21 1368.76 1238.85 1359.47L1091.38 1103.54C1088.03 1097.71 1087.16 1090.78 1088.98 1084.3L1199.85 689.189C1201.31 683.983 1204.42 679.39 1208.71 676.101L1496.49 455.539C1503.81 449.93 1513.62 448.805 1522.02 452.611L1760.7 560.789C1769.1 564.595 1774.72 572.715 1775.33 581.916L1799.16 943.714C1799.52 949.11 1798.11 954.475 1795.16 959.006L1571.12 1302.83C1567.45 1308.46 1561.66 1312.38 1555.07 1313.7L1265.41 1371.5Z" fill="url(#paint13_linear_116_771)"/>
<path opacity="0.217391" fill-rule="evenodd" clip-rule="evenodd" d="M1511.99 1313.43L1221.91 1355.11C1213.02 1356.39 1204.31 1351.87 1200.22 1343.88L1066.9 1082.9C1064.32 1077.86 1063.89 1072 1065.7 1066.63L1195.49 681.85C1196.95 677.53 1199.77 673.802 1203.54 671.228L1499.92 468.514C1506.3 464.148 1514.57 463.644 1521.43 467.2L1752.63 586.949C1759.5 590.506 1763.86 597.547 1763.97 605.279L1769.4 964.316C1769.47 968.874 1768.05 973.331 1765.37 977.014L1525.97 1305.03C1522.63 1309.6 1517.59 1312.63 1511.99 1313.43ZM1222.48 1359.07C1211.9 1360.59 1201.52 1355.21 1196.66 1345.7L1063.34 1084.72C1060.27 1078.72 1059.76 1071.74 1061.91 1065.35L1191.7 680.571C1193.44 675.429 1196.8 670.99 1201.28 667.926L1497.66 465.212C1505.26 460.015 1515.1 459.414 1523.27 463.648L1754.47 583.397C1762.65 587.631 1767.83 596.014 1767.97 605.219L1773.4 964.256C1773.48 969.682 1771.8 974.988 1768.6 979.372L1529.2 1307.38C1525.23 1312.83 1519.23 1316.43 1512.56 1317.39L1222.48 1359.07Z" fill="url(#paint14_linear_116_771)"/>
<path opacity="0.231884" fill-rule="evenodd" clip-rule="evenodd" d="M1469.85 1316.02L1180.24 1341.68C1171.32 1342.47 1162.89 1337.53 1159.22 1329.36L1040.17 1064.11C1037.84 1058.94 1037.71 1053.05 1039.8 1047.78L1187.74 674.212C1189.42 669.958 1192.45 666.37 1196.36 663.995L1500.27 479.416C1506.87 475.409 1515.14 475.345 1521.8 479.249L1744.97 610.086C1751.63 613.991 1755.61 621.234 1755.33 628.948L1742.7 984.299C1742.54 988.872 1740.89 993.266 1738 996.814L1484.28 1308.36C1480.7 1312.76 1475.49 1315.52 1469.85 1316.02ZM1180.59 1345.67C1169.98 1346.61 1159.94 1340.72 1155.57 1331L1036.52 1065.75C1033.75 1059.59 1033.6 1052.58 1036.08 1046.31L1184.02 672.739C1186.02 667.674 1189.63 663.404 1194.28 660.576L1498.2 475.997C1506.05 471.227 1515.89 471.151 1523.82 475.798L1746.99 606.636C1754.92 611.283 1759.66 619.906 1759.33 629.09L1746.7 984.441C1746.51 989.885 1744.54 995.116 1741.1 999.34L1487.38 1310.89C1483.12 1316.12 1476.92 1319.41 1470.2 1320L1180.59 1345.67Z" fill="url(#paint15_linear_116_771)"/>
<path opacity="0.246377" fill-rule="evenodd" clip-rule="evenodd" d="M1427.91 1317.55L1139.64 1327.37C1130.73 1327.67 1122.6 1322.31 1119.36 1314L1014.65 1045.24C1012.59 1039.95 1012.76 1034.05 1015.12 1028.89L1180.39 667.374C1182.3 663.197 1185.52 659.761 1189.57 657.593L1499.94 491.376C1506.73 487.737 1514.97 488.112 1521.41 492.352L1736.02 633.768C1742.46 638.008 1746.05 645.432 1745.39 653.11L1715.1 1003.88C1714.71 1008.45 1712.82 1012.77 1709.74 1016.18L1442.75 1310.67C1438.94 1314.87 1433.59 1317.36 1427.91 1317.55ZM1139.78 1331.36C1129.17 1331.73 1119.49 1325.35 1115.63 1315.45L1010.92 1046.69C1008.47 1040.4 1008.67 1033.37 1011.48 1027.22L1176.75 665.711C1179.02 660.738 1182.86 656.648 1187.68 654.066L1498.05 487.849C1506.14 483.518 1515.95 483.965 1523.61 489.012L1738.22 630.428C1745.88 635.475 1750.16 644.314 1749.38 653.454L1719.09 1004.22C1718.62 1009.67 1716.38 1014.81 1712.7 1018.86L1445.72 1313.35C1441.18 1318.36 1434.8 1321.32 1428.05 1321.55L1139.78 1331.36Z" fill="url(#paint16_linear_116_771)"/>
<path opacity="0.26087" fill-rule="evenodd" clip-rule="evenodd" d="M1386.23 1318.05L1100.16 1312.23C1091.28 1312.05 1083.47 1306.3 1080.66 1297.87L990.343 1026.37C988.547 1020.97 989.018 1015.07 991.647 1010.03L1173.4 661.35C1175.53 657.262 1178.95 653.988 1183.12 652.035L1498.86 504.342C1505.83 501.083 1514.02 501.894 1520.21 506.457L1725.78 657.917C1731.98 662.48 1735.18 670.065 1734.13 677.686L1686.63 1023.01C1686 1027.57 1683.89 1031.81 1680.62 1035.05L1401.45 1311.96C1397.41 1315.97 1391.92 1318.16 1386.23 1318.05ZM1100.08 1316.23C1089.51 1316.02 1080.21 1309.17 1076.87 1299.13L986.547 1027.63C984.41 1021.2 984.97 1014.19 988.1 1008.18L1169.85 659.501C1172.39 654.634 1176.46 650.737 1181.43 648.412L1497.16 500.719C1505.46 496.838 1515.21 497.805 1522.58 503.237L1728.16 654.697C1735.53 660.129 1739.34 669.158 1738.09 678.231L1690.59 1023.55C1689.85 1028.99 1687.33 1034.03 1683.43 1037.89L1404.27 1314.8C1399.46 1319.57 1392.92 1322.18 1386.15 1322.05L1100.08 1316.23Z" fill="url(#paint17_linear_116_771)"/>
<path opacity="0.275362" fill-rule="evenodd" clip-rule="evenodd" d="M1344.87 1317.54L1061.84 1296.35C1053.01 1295.69 1045.54 1289.56 1043.17 1281.03L967.237 1007.55C965.713 1002.06 966.485 996.185 969.376 991.275L1166.72 656.152C1169.07 652.164 1172.67 649.064 1176.96 647.333L1496.99 518.264C1504.11 515.392 1512.23 516.636 1518.17 521.508L1714.24 682.458C1720.17 687.33 1722.98 695.054 1721.55 702.598L1657.31 1041.64C1656.45 1046.19 1654.11 1050.32 1650.66 1053.4L1360.41 1312.27C1356.16 1316.06 1350.55 1317.96 1344.87 1317.54ZM1061.54 1300.34C1051.03 1299.55 1042.14 1292.25 1039.32 1282.1L963.383 1008.62C961.568 1002.08 962.488 995.091 965.93 989.246L1163.28 654.123C1166.07 649.375 1170.36 645.684 1175.47 643.623L1495.49 514.555C1503.97 511.135 1513.64 512.616 1520.71 518.417L1716.78 679.366C1723.84 685.166 1727.18 694.361 1725.48 703.343L1661.24 1042.38C1660.22 1047.8 1657.43 1052.72 1653.32 1056.39L1363.08 1315.25C1358.01 1319.77 1351.33 1322.03 1344.57 1321.53L1061.54 1300.34Z" fill="url(#paint18_linear_116_771)"/>
<path opacity="0.289855" fill-rule="evenodd" clip-rule="evenodd" d="M1303.87 1316.05L1024.69 1279.79C1015.94 1278.65 1008.84 1272.17 1006.91 1263.56L945.319 988.858C944.071 983.288 945.143 977.45 948.29 972.687L1160.32 651.791C1162.88 647.914 1166.66 644.997 1171.05 643.495L1494.29 533.089C1501.54 530.611 1509.57 532.282 1515.23 537.449L1701.38 707.312C1707.04 712.479 1709.44 720.32 1707.63 727.77L1627.19 1059.73C1626.09 1064.25 1623.53 1068.28 1619.9 1071.18L1319.7 1311.61C1315.24 1315.18 1309.53 1316.78 1303.87 1316.05ZM1024.18 1283.75C1013.76 1282.4 1005.3 1274.68 1003 1264.43L941.416 989.733C939.93 983.102 941.206 976.152 944.953 970.482L1156.98 649.586C1160.03 644.971 1164.53 641.497 1169.76 639.71L1493 529.303C1501.63 526.354 1511.19 528.343 1517.93 534.494L1704.07 704.357C1710.81 710.508 1713.67 719.843 1711.52 728.712L1631.07 1060.68C1629.77 1066.05 1626.72 1070.84 1622.4 1074.3L1322.2 1314.73C1316.89 1318.98 1310.09 1320.89 1303.35 1320.01L1024.18 1283.75Z" fill="url(#paint19_linear_116_771)"/>
<path opacity="0.304348" fill-rule="evenodd" clip-rule="evenodd" d="M1263.27 1313.6L988.753 1262.62C980.11 1261.02 973.381 1254.2 971.891 1245.53L924.572 970.358C923.603 964.722 924.974 958.935 928.369 954.333L1154.14 648.272C1156.91 644.518 1160.85 641.793 1165.34 640.527L1490.72 548.76C1498.08 546.683 1505.99 548.775 1511.37 554.221L1687.19 732.403C1692.57 737.849 1694.55 745.787 1692.38 753.123L1596.28 1077.25C1594.96 1081.73 1592.18 1085.63 1588.39 1088.35L1279.35 1310.02C1274.7 1313.35 1268.9 1314.65 1263.27 1313.6ZM988.023 1266.55C977.733 1264.64 969.722 1256.53 967.949 1246.21L920.63 971.036C919.476 964.326 921.108 957.437 925.15 951.958L1150.92 645.898C1154.22 641.429 1158.91 638.185 1164.25 636.677L1489.63 544.91C1498.4 542.438 1507.82 544.929 1514.22 551.412L1690.04 729.594C1696.44 736.077 1698.8 745.527 1696.21 754.259L1600.12 1078.39C1598.54 1083.71 1595.23 1088.36 1590.72 1091.6L1281.68 1313.27C1276.15 1317.24 1269.24 1318.78 1262.54 1317.54L988.023 1266.55Z" fill="url(#paint20_linear_116_771)"/>
<path opacity="0.318841" fill-rule="evenodd" clip-rule="evenodd" d="M1223.14 1310.24L954.038 1244.93C945.527 1242.86 939.191 1235.73 938.142 1227.03L904.973 952.112C904.287 946.424 905.955 940.703 909.589 936.274L1148.14 645.601C1151.11 641.98 1155.2 639.457 1159.77 638.432L1486.24 565.221C1493.7 563.55 1501.47 566.056 1506.54 571.765L1671.69 757.656C1676.76 763.364 1678.33 771.377 1675.79 778.579L1564.64 1094.16C1563.09 1098.57 1560.1 1102.34 1556.15 1104.87L1239.41 1307.52C1234.58 1310.61 1228.71 1311.59 1223.14 1310.24ZM953.094 1248.81C942.962 1246.35 935.42 1237.86 934.171 1227.51L901.002 952.591C900.185 945.82 902.17 939.009 906.497 933.737L1145.04 643.063C1148.58 638.753 1153.46 635.749 1158.9 634.529L1485.37 561.318C1494.24 559.329 1503.49 562.312 1509.53 569.108L1674.68 754.999C1680.71 761.795 1682.59 771.333 1679.57 779.908L1568.42 1095.48C1566.56 1100.74 1563.01 1105.23 1558.31 1108.24L1241.57 1310.89C1235.82 1314.57 1228.82 1315.74 1222.2 1314.13L953.094 1248.81Z" fill="url(#paint21_linear_116_771)"/>
<path opacity="0.333333" fill-rule="evenodd" clip-rule="evenodd" d="M1183.51 1305.99L920.564 1226.77C912.21 1224.25 906.283 1216.83 905.674 1208.13L886.5 934.183C886.099 928.458 888.06 922.818 891.925 918.575L1142.26 643.779C1145.43 640.302 1149.67 637.99 1154.31 637.211L1480.83 582.414C1488.35 581.152 1495.96 584.062 1500.71 590.017L1654.86 782.992C1659.62 788.947 1660.78 797.012 1657.89 804.064L1532.31 1110.41C1530.52 1114.76 1527.33 1118.38 1523.24 1120.71L1199.93 1304.15C1194.94 1306.98 1189 1307.65 1183.51 1305.99ZM919.41 1230.6C909.465 1227.6 902.409 1218.77 901.683 1208.41L882.51 934.463C882.033 927.646 884.366 920.932 888.968 915.881L1139.31 641.085C1143.08 636.946 1148.13 634.193 1153.65 633.266L1480.17 578.469C1489.11 576.967 1498.17 580.432 1503.84 587.521L1657.99 780.496C1663.65 787.585 1665.03 797.186 1661.59 805.582L1536.01 1111.92C1533.88 1117.1 1530.08 1121.42 1525.21 1124.18L1201.9 1307.63C1195.96 1311 1188.89 1311.79 1182.35 1309.82L919.41 1230.6Z" fill="url(#paint22_linear_116_771)"/>
<path opacity="0.347826" fill-rule="evenodd" clip-rule="evenodd" d="M1144.41 1300.89L888.344 1208.23C880.172 1205.28 874.665 1197.59 874.494 1188.9L869.124 916.632C869.011 910.883 871.26 905.339 875.347 901.294L1136.48 642.806C1139.83 639.484 1144.21 637.39 1148.91 636.862L1474.45 600.278C1482 599.429 1489.43 602.733 1493.86 608.917L1636.73 808.339C1641.16 814.523 1641.9 822.618 1638.66 829.502L1499.31 1125.97C1497.3 1130.25 1493.91 1133.72 1489.69 1135.83L1160.94 1299.94C1155.79 1302.51 1149.82 1302.85 1144.41 1300.89ZM886.983 1211.99C877.254 1208.47 870.699 1199.32 870.495 1188.98L865.125 916.711C864.99 909.867 867.668 903.267 872.533 898.451L1133.66 639.963C1137.66 636.008 1142.87 633.515 1148.46 632.887L1474 596.303C1483 595.292 1491.84 599.226 1497.11 606.587L1639.98 806.009C1645.26 813.371 1646.14 823.008 1642.28 831.204L1502.93 1127.67C1500.54 1132.76 1496.5 1136.9 1491.47 1139.41L1162.73 1303.52C1156.6 1306.57 1149.49 1306.99 1143.05 1304.66L886.983 1211.99Z" fill="url(#paint23_linear_116_771)"/>
<path opacity="0.362319" fill-rule="evenodd" clip-rule="evenodd" d="M1105.91 1294.99L857.384 1189.38C849.417 1186 844.344 1178.07 844.607 1169.42L852.816 899.517C852.991 893.759 855.524 888.325 859.822 884.489L1130.73 642.679C1134.27 639.521 1138.77 637.653 1143.51 637.381L1467.07 618.754C1474.65 618.318 1481.87 622.006 1485.96 628.4L1617.3 833.622C1621.39 840.016 1621.72 848.12 1618.15 854.819L1465.7 1140.82C1463.47 1145.01 1459.89 1148.32 1455.54 1150.21L1122.49 1294.92C1117.2 1297.21 1111.21 1297.24 1105.91 1294.99ZM855.82 1193.07C846.335 1189.04 840.295 1179.6 840.609 1169.3L848.817 899.396C849.026 892.54 852.042 886.072 857.158 881.505L1128.07 639.695C1132.28 635.935 1137.64 633.712 1143.28 633.387L1466.84 614.761C1475.86 614.241 1484.46 618.632 1489.33 626.243L1620.67 831.465C1625.54 839.077 1625.93 848.726 1621.68 856.701L1469.23 1142.7C1466.58 1147.69 1462.31 1151.62 1457.13 1153.87L1124.08 1298.59C1117.79 1301.32 1110.65 1301.35 1104.34 1298.67L855.82 1193.07Z" fill="url(#paint24_linear_116_771)"/>
<path opacity="0.376812" fill-rule="evenodd" clip-rule="evenodd" d="M1068.02 1288.3L827.688 1170.3C819.949 1166.5 815.319 1158.36 816.012 1149.76L837.539 882.894C838.003 877.141 840.815 871.832 845.314 868.216L1124.98 643.393C1128.7 640.408 1133.31 638.775 1138.08 638.76L1458.68 637.78C1466.25 637.757 1473.25 641.816 1477 648.401L1596.59 858.768C1600.34 865.354 1600.24 873.445 1596.35 879.943L1431.52 1154.93C1429.07 1159.02 1425.31 1162.15 1420.84 1163.81L1084.61 1289.13C1079.2 1291.15 1073.2 1290.85 1068.02 1288.3ZM825.925 1173.89C816.712 1169.37 811.2 1159.67 812.025 1149.44L833.552 882.573C834.105 875.724 837.452 869.404 842.808 865.098L1122.48 640.275C1126.9 636.722 1132.39 634.778 1138.06 634.76L1458.67 633.78C1467.68 633.753 1476.02 638.584 1480.48 646.425L1600.07 856.791C1604.53 864.631 1604.42 874.264 1599.78 882L1434.95 1156.99C1432.04 1161.85 1427.55 1165.58 1422.24 1167.56L1086 1292.88C1079.56 1295.28 1072.42 1294.92 1066.25 1291.9L825.925 1173.89Z" fill="url(#paint25_linear_116_771)"/>
<path opacity="0.391304" fill-rule="evenodd" clip-rule="evenodd" d="M1030.78 1280.89L799.255 1151.05C791.766 1146.85 787.588 1138.52 788.706 1130.01L823.259 866.818C824.012 861.084 827.097 855.914 831.785 852.528L1119.19 644.94C1123.06 642.139 1127.78 640.746 1132.56 640.992L1449.26 657.294C1456.8 657.683 1463.56 662.099 1466.95 668.858L1574.62 883.707C1578.01 890.465 1577.5 898.522 1573.3 904.803L1396.81 1168.27C1394.15 1172.24 1390.21 1175.19 1385.64 1176.62L1047.33 1282.62C1041.81 1284.35 1035.82 1283.72 1030.78 1280.89ZM797.299 1154.54C788.383 1149.54 783.409 1139.62 784.74 1129.48L819.294 866.297C820.19 859.471 823.861 853.317 829.443 849.285L1116.84 641.697C1121.46 638.362 1127.08 636.704 1132.77 636.997L1449.46 653.299C1458.45 653.762 1466.49 659.02 1470.53 667.065L1578.2 881.915C1582.23 889.96 1581.63 899.552 1576.62 907.029L1400.14 1170.49C1396.97 1175.23 1392.28 1178.73 1386.84 1180.44L1048.53 1286.43C1041.96 1288.49 1034.83 1287.75 1028.82 1284.38L797.299 1154.54Z" fill="url(#paint26_linear_116_771)"/>
<path opacity="0.405797" fill-rule="evenodd" clip-rule="evenodd" d="M994.227 1272.8L772.08 1131.72C764.862 1127.13 761.144 1118.63 762.679 1110.22L809.936 851.339C810.977 845.639 814.327 840.622 819.193 837.475L1113.3 647.31C1117.33 644.701 1122.14 643.555 1126.92 644.063L1438.79 677.234C1446.29 678.032 1452.78 682.792 1455.81 689.703L1551.42 908.37C1554.44 915.281 1553.53 923.282 1549.02 929.331L1361.63 1180.81C1358.75 1184.67 1354.65 1187.42 1349.99 1188.61L1010.69 1275.41C1005.08 1276.85 999.118 1275.9 994.227 1272.8ZM769.935 1135.09C761.342 1129.64 756.916 1119.52 758.744 1109.5L806.001 850.621C807.24 843.835 811.228 837.862 817.021 834.116L1111.13 643.951C1115.93 640.845 1121.65 639.48 1127.34 640.085L1439.21 673.257C1448.14 674.206 1455.87 679.873 1459.47 688.1L1555.09 906.767C1558.68 914.995 1557.59 924.52 1552.23 931.721L1364.83 1183.2C1361.41 1187.79 1356.53 1191.07 1350.98 1192.48L1011.68 1279.29C1005 1281 997.906 1279.87 992.083 1276.17L769.935 1135.09Z" fill="url(#paint27_linear_116_771)"/>
<path opacity="0.42029" fill-rule="evenodd" clip-rule="evenodd" d="M958.389 1264.06L746.152 1112.36C739.225 1107.41 735.973 1098.77 737.919 1090.48L797.528 836.506C798.854 830.854 802.462 826.003 807.493 823.106L1107.28 650.492C1111.46 648.083 1116.35 647.189 1121.11 647.96L1427.26 697.538C1434.69 698.741 1440.91 703.828 1443.56 710.873L1527.01 932.689C1529.66 939.733 1528.34 947.658 1523.55 953.46L1326.01 1192.54C1322.93 1196.27 1318.67 1198.82 1313.93 1199.76L974.716 1267.56C969.023 1268.7 963.112 1267.43 958.389 1264.06ZM743.826 1115.62C735.58 1109.72 731.709 1099.43 734.025 1089.56L793.633 835.592C795.213 828.863 799.507 823.088 805.497 819.639L1105.28 647.025C1110.26 644.157 1116.08 643.093 1121.75 644.012L1427.9 693.589C1436.74 695.021 1444.14 701.078 1447.3 709.464L1530.76 931.28C1533.91 939.667 1532.34 949.1 1526.63 956.008L1329.09 1195.09C1325.43 1199.52 1320.35 1202.56 1314.72 1203.68L975.5 1271.49C968.722 1272.84 961.686 1271.33 956.063 1267.31L743.826 1115.62Z" fill="url(#paint28_linear_116_771)"/>
<path opacity="0.434783" fill-rule="evenodd" clip-rule="evenodd" d="M923.291 1254.72L721.46 1093.06C714.843 1087.76 712.062 1079 714.409 1070.85L785.988 822.366C787.599 816.775 791.456 812.104 796.64 809.464L1101.08 654.47C1105.4 652.269 1110.35 651.633 1115.09 652.668L1414.67 718.142C1422 719.746 1427.93 725.145 1430.2 732.302L1501.43 956.6C1503.7 963.757 1501.98 971.584 1496.91 977.126L1290 1203.45C1286.73 1207.03 1282.32 1209.36 1277.52 1210.06L939.434 1259.11C933.677 1259.95 927.831 1258.35 923.291 1254.72ZM718.959 1096.18C711.082 1089.87 707.771 1079.44 710.565 1069.75L782.145 821.258C784.062 814.603 788.654 809.042 794.825 805.9L1099.26 650.905C1104.41 648.285 1110.3 647.528 1115.94 648.76L1415.52 714.235C1424.26 716.143 1431.31 722.571 1434.01 731.091L1505.24 955.389C1507.95 963.91 1505.9 973.227 1499.87 979.825L1292.95 1206.15C1289.06 1210.41 1283.81 1213.19 1278.09 1214.02L940.009 1263.07C933.155 1264.06 926.195 1262.17 920.79 1257.84L718.959 1096.18Z" fill="url(#paint29_linear_116_771)"/>
<path opacity="0.449275" fill-rule="evenodd" clip-rule="evenodd" d="M888.956 1244.83L697.985 1073.87C691.697 1068.24 689.39 1059.4 692.127 1051.41L775.272 808.96C777.163 803.446 781.261 798.966 786.585 796.593L1094.67 659.228C1099.12 657.244 1104.12 656.869 1108.82 658.168L1401.01 738.987C1408.23 740.984 1413.84 746.677 1415.73 753.927L1474.71 980.04C1476.6 987.29 1474.48 994.998 1469.16 1000.27L1253.66 1213.5C1250.2 1216.93 1245.65 1219.05 1240.79 1219.49L904.868 1250.1C899.063 1250.62 893.299 1248.72 888.956 1244.83ZM695.317 1076.85C687.831 1070.15 685.085 1059.62 688.344 1050.12L771.489 807.663C773.74 801.098 778.618 795.765 784.956 792.939L1093.04 655.575C1098.34 653.213 1104.29 652.766 1109.88 654.313L1402.08 735.131C1410.67 737.509 1417.35 744.287 1419.6 752.917L1478.58 979.031C1480.83 987.661 1478.31 996.838 1471.97 1003.11L1256.47 1216.35C1252.35 1220.43 1246.93 1222.95 1241.16 1223.47L905.231 1254.08C898.32 1254.71 891.459 1252.44 886.288 1247.81L695.317 1076.85Z" fill="url(#paint30_linear_116_771)"/>
<path opacity="0.463768" fill-rule="evenodd" clip-rule="evenodd" d="M855.406 1234.44L675.707 1054.87C669.765 1048.93 667.933 1040.03 671.051 1032.22L765.33 796.33C767.498 790.907 771.827 786.631 777.277 784.53L1088 664.749C1092.57 662.988 1097.61 662.878 1102.25 664.44L1386.28 760.009C1393.37 762.392 1398.65 768.362 1400.16 775.683L1446.88 1002.95C1448.39 1010.27 1445.89 1017.84 1440.32 1022.83L1217.03 1222.7C1213.38 1225.97 1208.71 1227.86 1203.81 1228.04L871.039 1240.57C865.202 1240.79 859.537 1238.56 855.406 1234.44ZM672.88 1057.7C665.805 1050.63 663.625 1040.03 667.336 1030.74L761.616 794.846C764.196 788.389 769.35 783.298 775.838 780.797L1086.56 661.017C1092 658.92 1098 658.79 1103.53 660.649L1387.56 756.217C1395.99 759.055 1402.28 766.161 1404.08 774.877L1450.8 1002.14C1452.59 1010.86 1449.62 1019.87 1442.99 1025.81L1219.7 1225.68C1215.36 1229.57 1209.79 1231.82 1203.97 1232.04L871.19 1244.56C864.241 1244.82 857.497 1242.18 852.578 1237.26L672.88 1057.7Z" fill="url(#paint31_linear_116_771)"/>
<path opacity="0.478261" fill-rule="evenodd" clip-rule="evenodd" d="M822.657 1223.59L654.602 1036.13C649.02 1029.9 647.664 1020.95 651.151 1013.35L756.11 784.513C758.55 779.193 763.1 775.132 768.663 773.311L1081.04 671.011C1085.72 669.48 1090.78 669.639 1095.35 671.461L1370.5 781.148C1377.42 783.909 1382.37 790.136 1383.48 797.508L1418 1025.27C1419.12 1032.64 1416.25 1040.06 1410.45 1044.75L1180.17 1231.04C1176.34 1234.13 1171.55 1235.78 1166.63 1235.71L837.965 1230.57C832.113 1230.47 826.564 1227.94 822.657 1223.59ZM651.624 1038.8C644.978 1031.38 643.364 1020.73 647.515 1011.68L752.475 782.845C755.379 776.512 760.796 771.678 767.418 769.509L1079.8 667.21C1085.36 665.387 1091.39 665.576 1096.84 667.746L1371.98 777.432C1380.22 780.719 1386.11 788.132 1387.44 796.908L1421.96 1024.67C1423.29 1033.45 1419.87 1042.27 1412.96 1047.86L1182.68 1234.15C1178.13 1237.83 1172.42 1239.8 1166.57 1239.71L837.903 1234.56C830.936 1234.46 824.33 1231.44 819.679 1226.26L651.624 1038.8Z" fill="url(#paint32_linear_116_771)"/>
<path opacity="0.492754" fill-rule="evenodd" clip-rule="evenodd" d="M790.726 1212.33L634.641 1017.69C629.434 1011.2 628.553 1002.24 632.395 994.861L747.561 773.541C750.268 768.338 755.028 764.505 760.689 762.968L1073.76 677.993C1078.53 676.698 1083.61 677.128 1088.09 679.208L1353.65 802.344C1360.4 805.473 1364.99 811.938 1365.72 819.34L1388.11 1046.95C1388.84 1054.36 1385.59 1061.59 1379.59 1065.97L1143.11 1238.5C1139.12 1241.41 1134.22 1242.82 1129.29 1242.48L805.662 1220.14C799.811 1219.74 794.395 1216.9 790.726 1212.33ZM631.52 1020.19C625.322 1012.47 624.273 1001.8 628.846 993.014L744.012 771.695C747.236 765.501 752.902 760.937 759.641 759.108L1072.71 674.133C1078.39 672.591 1084.43 673.103 1089.77 675.579L1355.33 798.715C1363.37 802.44 1368.83 810.136 1369.7 818.948L1392.09 1046.56C1392.96 1055.37 1389.1 1063.99 1381.94 1069.21L1145.47 1241.73C1140.71 1245.2 1134.88 1246.88 1129.01 1246.47L805.387 1224.13C798.421 1223.65 791.973 1220.28 787.605 1214.83L631.52 1020.19Z" fill="url(#paint33_linear_116_771)"/>
<path opacity="0.507246" fill-rule="evenodd" clip-rule="evenodd" d="M759.623 1200.71L615.793 999.635C610.974 992.898 610.565 983.958 614.749 976.81L739.627 763.446C742.596 758.374 747.555 754.777 753.299 753.531L1066.11 685.671C1070.97 684.617 1076.04 685.32 1080.43 687.655L1335.76 823.539C1342.31 827.024 1346.54 833.706 1346.87 841.118L1357.25 1067.94C1357.59 1075.35 1353.99 1082.39 1347.79 1086.46L1105.92 1245.08C1101.76 1247.81 1096.77 1248.97 1091.84 1248.36L774.143 1209.34C768.309 1208.62 763.043 1205.49 759.623 1200.71ZM612.539 1001.96C606.803 993.942 606.316 983.299 611.297 974.789L736.175 761.426C739.71 755.387 745.613 751.106 752.451 749.622L1065.26 681.762C1071.04 680.507 1077.08 681.344 1082.31 684.124L1337.64 820.008C1345.44 824.157 1350.47 832.112 1350.87 840.935L1361.24 1067.76C1361.65 1076.58 1357.36 1084.96 1349.98 1089.81L1108.11 1248.43C1103.16 1251.67 1097.23 1253.06 1091.35 1252.33L773.655 1213.31C766.71 1212.45 760.441 1208.73 756.37 1203.04L612.539 1001.96Z" fill="url(#paint34_linear_116_771)"/>
<path opacity="0.521739" fill-rule="evenodd" clip-rule="evenodd" d="M729.36 1188.78L598.023 982.012C593.604 975.055 593.663 966.155 598.175 959.258L732.255 754.255C735.479 749.326 740.625 745.977 746.437 745.025L1058.07 694.019C1063 693.212 1068.05 694.189 1072.33 696.774L1316.84 844.674C1323.17 848.504 1327.02 855.383 1326.97 862.783L1325.47 1088.19C1325.42 1095.59 1321.48 1102.42 1315.1 1106.16L1068.64 1250.79C1064.33 1253.32 1059.26 1254.23 1054.34 1253.35L743.418 1198.2C737.619 1197.17 732.518 1193.75 729.36 1188.78ZM594.647 984.156C589.386 975.874 589.456 965.28 594.827 957.068L728.907 752.066C732.745 746.197 738.871 742.211 745.791 741.078L1057.42 690.071C1063.29 689.11 1069.31 690.274 1074.4 693.352L1318.91 841.252C1326.45 845.811 1331.03 854.001 1330.97 862.81L1329.47 1088.22C1329.41 1097.02 1324.72 1105.15 1317.12 1109.61L1070.66 1254.24C1065.53 1257.25 1059.5 1258.33 1053.64 1257.29L742.719 1202.14C735.815 1200.91 729.743 1196.85 725.983 1190.93L594.647 984.156Z" fill="url(#paint35_linear_116_771)"/>
<path opacity="0.536232" fill-rule="evenodd" clip-rule="evenodd" d="M699.941 1176.59L581.294 964.878C577.285 957.724 577.807 948.891 582.631 942.259L725.385 745.991C728.857 741.218 734.178 738.126 740.045 737.473L1049.6 703.009C1054.59 702.454 1059.61 703.705 1063.76 706.537L1296.9 865.695C1303 869.856 1306.46 876.911 1306.03 884.278L1292.83 1107.65C1292.39 1115.02 1288.12 1121.62 1281.58 1125.03L1031.31 1255.62C1026.86 1257.95 1021.72 1258.6 1016.83 1257.46L713.495 1186.78C707.746 1185.44 702.827 1181.74 699.941 1176.59ZM577.805 966.834C573.032 958.317 573.653 947.801 579.396 939.906L722.151 743.638C726.284 737.955 732.618 734.275 739.602 733.497L1049.15 699.034C1055.09 698.373 1061.08 699.862 1066.01 703.233L1299.16 862.391C1306.41 867.345 1310.54 875.743 1310.02 884.514L1296.82 1107.89C1296.3 1116.66 1291.22 1124.51 1283.43 1128.58L1033.16 1259.17C1027.86 1261.93 1021.75 1262.71 1015.93 1261.35L712.587 1190.67C705.744 1189.08 699.887 1184.68 696.452 1178.55L577.805 966.834Z" fill="url(#paint36_linear_116_771)"/>
<path opacity="0.550725" fill-rule="evenodd" clip-rule="evenodd" d="M671.371 1164.19L565.565 948.287C561.975 940.961 562.953 932.218 568.073 925.866L718.963 738.675C722.675 734.069 728.158 731.243 734.063 730.891L1040.67 712.615C1045.71 712.315 1050.69 713.84 1054.69 716.912L1275.97 886.546C1281.81 891.024 1284.88 898.232 1284.06 905.546L1259.37 1126.29C1258.56 1133.6 1253.97 1139.95 1247.28 1143.03L993.999 1259.59C989.413 1261.7 984.219 1262.08 979.37 1260.68L684.379 1175.12C678.697 1173.47 673.974 1169.5 671.371 1164.19ZM561.974 950.047C557.7 941.326 558.864 930.918 564.959 923.356L715.848 736.165C720.268 730.682 726.795 727.317 733.825 726.898L1040.43 708.622C1046.43 708.264 1052.36 710.08 1057.13 713.737L1278.4 883.371C1285.36 888.702 1289.01 897.284 1288.04 905.991L1263.35 1126.73C1262.38 1135.44 1256.91 1143 1248.96 1146.66L995.672 1263.22C990.211 1265.73 984.029 1266.19 978.256 1264.52L683.264 1178.96C676.501 1177 670.878 1172.27 667.779 1165.95L561.974 950.047Z" fill="url(#paint37_linear_116_771)"/>
<path opacity="0.565217" fill-rule="evenodd" clip-rule="evenodd" d="M643.651 1151.62L550.794 932.288C547.63 924.815 549.056 916.187 554.455 910.129L712.928 732.323C716.872 727.897 722.504 725.345 728.432 725.296L1031.26 722.805C1036.33 722.763 1041.25 724.562 1045.11 727.867L1254.06 907.174C1259.63 911.954 1262.3 919.294 1261.11 926.535L1225.17 1144.06C1223.97 1151.3 1219.08 1157.39 1212.27 1160.12L956.742 1262.69C952.031 1264.58 946.794 1264.7 942.001 1263.03L656.071 1163.26C650.474 1161.31 645.963 1157.08 643.651 1151.62ZM547.111 933.848C543.344 924.951 545.041 914.68 551.469 907.467L709.942 729.662C714.638 724.393 721.342 721.354 728.399 721.296L1031.22 718.805C1037.27 718.755 1043.12 720.896 1047.71 724.832L1256.67 904.139C1263.3 909.828 1266.48 918.567 1265.05 927.187L1229.11 1144.71C1227.69 1153.33 1221.87 1160.58 1213.76 1163.83L958.232 1266.4C952.623 1268.65 946.389 1268.79 940.683 1266.8L654.754 1167.04C648.09 1164.71 642.719 1159.68 639.968 1153.18L547.111 933.848Z" fill="url(#paint38_linear_116_771)"/>
<path opacity="0.57971" fill-rule="evenodd" clip-rule="evenodd" d="M616.78 1138.93L536.935 916.93C534.203 909.334 536.067 900.845 541.729 895.092L707.222 726.949C711.39 722.714 717.157 720.444 723.093 720.699L1021.34 733.549C1026.43 733.769 1031.28 735.838 1034.96 739.371L1231.21 927.53C1236.49 932.594 1238.76 940.043 1237.19 947.191L1190.27 1160.93C1188.7 1168.08 1183.52 1173.89 1176.6 1176.28L919.588 1264.93C914.763 1266.6 909.496 1266.45 904.773 1264.51L628.573 1151.25C623.076 1149 618.791 1144.52 616.78 1138.93ZM533.171 918.283C529.919 909.241 532.137 899.134 538.878 892.286L704.371 724.143C709.333 719.102 716.198 716.399 723.265 716.703L1021.51 729.553C1027.58 729.814 1033.35 732.278 1037.73 736.484L1233.98 924.643C1240.27 930.672 1242.96 939.54 1241.1 948.049L1194.17 1161.79C1192.31 1170.3 1186.14 1177.22 1177.91 1180.06L920.893 1268.72C915.148 1270.7 908.878 1270.52 903.255 1268.21L627.056 1154.95C620.511 1152.27 615.41 1146.94 613.016 1140.29L533.171 918.283Z" fill="url(#paint39_linear_116_771)"/>
<path opacity="0.594203" fill-rule="evenodd" clip-rule="evenodd" d="M590.752 1126.17L523.939 902.255C521.644 894.562 523.935 886.234 529.842 880.798L701.786 722.563C706.168 718.53 712.056 716.548 717.984 717.108L1010.88 744.814C1015.99 745.298 1020.75 747.636 1024.25 751.388L1207.44 947.563C1212.42 952.896 1214.27 960.431 1212.34 967.466L1154.73 1176.87C1152.79 1183.91 1147.34 1189.44 1140.34 1191.47L882.584 1266.34C877.655 1267.77 872.371 1267.35 867.732 1265.15L601.881 1139.14C596.5 1136.59 592.455 1131.88 590.752 1126.17ZM520.106 903.399C517.373 894.241 520.101 884.326 527.133 877.855L699.078 719.619C704.294 714.819 711.303 712.459 718.361 713.126L1011.26 740.832C1017.34 741.407 1023 744.192 1027.17 748.658L1210.36 944.833C1216.29 951.182 1218.5 960.152 1216.19 968.527L1158.58 1177.94C1156.28 1186.31 1149.8 1192.89 1141.45 1195.31L883.7 1270.18C877.831 1271.89 871.542 1271.38 866.019 1268.77L600.168 1142.76C593.762 1139.72 588.946 1134.11 586.919 1127.32L520.106 903.399Z" fill="url(#paint40_linear_116_771)"/>
<path opacity="0.608696" fill-rule="evenodd" clip-rule="evenodd" d="M565.562 1113.39L511.758 888.305C509.902 880.541 512.608 872.396 518.742 867.287L696.561 719.17C701.147 715.351 707.142 713.662 713.047 714.528L999.865 756.568C1004.97 757.317 1009.63 759.921 1012.94 763.884L1182.78 967.228C1187.44 972.811 1188.88 980.41 1186.59 987.313L1118.61 1191.86C1116.32 1198.77 1110.62 1203.99 1103.54 1205.67L845.776 1266.92C840.753 1268.12 835.466 1267.42 830.925 1264.96L575.99 1126.98C570.741 1124.14 566.949 1119.2 565.562 1113.39ZM507.867 889.235C505.658 879.992 508.88 870.296 516.182 864.213L694.001 716.097C699.461 711.549 706.597 709.54 713.627 710.57L1000.45 752.61C1006.53 753.502 1012.07 756.602 1016.01 761.32L1185.85 964.664C1191.4 971.311 1193.11 980.356 1190.38 988.574L1122.41 1193.13C1119.68 1201.34 1112.89 1207.56 1104.47 1209.56L846.701 1270.82C840.721 1272.24 834.427 1271.41 829.021 1268.48L574.086 1130.49C567.837 1127.11 563.323 1121.23 561.671 1114.32L507.867 889.235Z" fill="url(#paint41_linear_116_771)"/>
<path opacity="0.623188" fill-rule="evenodd" clip-rule="evenodd" d="M541.199 1100.63L500.338 875.117C498.923 867.307 502.032 859.367 508.374 854.594L691.488 716.775C696.268 713.178 702.354 711.789 708.221 712.959L988.275 768.776C993.368 769.791 997.905 772.657 1001.01 776.822L1157.26 986.481C1161.59 992.295 1162.62 999.934 1159.98 1006.69L1081.99 1205.88C1079.34 1212.63 1073.4 1217.54 1066.27 1218.87L809.208 1266.7C804.102 1267.65 798.825 1266.67 794.396 1263.96L550.893 1114.79C545.792 1111.67 542.265 1106.51 541.199 1100.63ZM496.402 875.83C494.718 866.533 498.419 857.08 505.968 851.398L689.083 713.579C694.773 709.296 702.019 707.644 709.003 709.036L989.057 764.853C995.12 766.061 1000.52 769.474 1004.22 774.431L1160.47 984.091C1165.62 991.012 1166.85 1000.11 1163.7 1008.14L1085.71 1207.33C1082.56 1215.37 1075.49 1221.22 1067.01 1222.8L809.939 1270.63C803.861 1271.76 797.579 1270.6 792.306 1267.37L548.803 1118.2C542.731 1114.48 538.533 1108.35 537.263 1101.34L496.402 875.83Z" fill="url(#paint42_linear_116_771)"/>
<path opacity="0.637681" fill-rule="evenodd" clip-rule="evenodd" d="M517.652 1087.93L489.628 862.724C488.654 854.895 492.151 847.179 498.681 842.751L686.508 715.376C691.47 712.01 697.634 710.927 703.447 712.398L976.09 781.403C981.155 782.685 985.56 785.809 988.445 790.165L1130.92 1005.28C1134.91 1011.3 1135.52 1018.96 1132.54 1025.54L1044.91 1218.89C1041.92 1225.47 1035.76 1230.06 1028.6 1231.03L772.922 1265.69C767.744 1266.39 762.491 1265.14 758.188 1262.17L526.579 1102.63C521.641 1099.23 518.393 1093.88 517.652 1087.93ZM485.659 863.218C484.499 853.897 488.662 844.712 496.436 839.44L684.263 712.065C690.17 708.059 697.509 706.769 704.428 708.52L977.071 777.525C983.101 779.051 988.345 782.77 991.78 787.956L1134.26 1003.07C1139.01 1010.24 1139.74 1019.36 1136.18 1027.2L1048.55 1220.54C1045 1228.38 1037.67 1233.84 1029.14 1235L773.459 1269.65C767.295 1270.49 761.042 1268.99 755.919 1265.47L524.31 1105.93C518.432 1101.88 514.565 1095.51 513.683 1088.42L485.659 863.218Z" fill="url(#paint43_linear_116_771)"/>
<path opacity="0.652174" fill-rule="evenodd" clip-rule="evenodd" d="M494.908 1075.34L479.572 851.159C479.037 843.334 482.906 835.864 489.606 831.786L681.562 714.969C686.696 711.844 692.922 711.069 698.665 712.84L963.293 794.414C968.317 795.963 972.577 799.339 975.232 803.876L1103.8 1023.58C1107.44 1029.8 1107.63 1037.45 1104.32 1043.85L1007.44 1230.89C1004.13 1237.29 997.766 1241.54 990.588 1242.16L736.959 1263.91C731.722 1264.36 726.506 1262.83 722.343 1259.62L503.037 1090.54C498.277 1086.87 495.318 1081.34 494.908 1075.34ZM475.582 851.432C474.944 842.117 479.551 833.223 487.527 828.37L679.482 711.552C685.594 707.832 693.006 706.91 699.844 709.017L964.472 790.592C970.452 792.435 975.524 796.454 978.684 801.856L1107.25 1021.56C1111.58 1028.96 1111.82 1038.07 1107.87 1045.69L1010.99 1232.73C1007.05 1240.35 999.475 1245.41 990.929 1246.14L737.301 1267.9C731.066 1268.43 724.857 1266.61 719.901 1262.79L500.594 1093.71C494.928 1089.34 491.405 1082.75 490.917 1075.62L475.582 851.432Z" fill="url(#paint44_linear_116_771)"/>
<path opacity="0.666667" fill-rule="evenodd" clip-rule="evenodd" d="M472.949 1062.9L470.115 840.447C470.015 832.653 474.241 825.445 481.09 821.725L676.593 715.547C681.886 712.672 688.16 712.208 693.818 714.275L949.872 807.773C954.841 809.587 958.942 813.21 961.356 817.917L1075.93 1041.36C1079.21 1047.75 1078.99 1055.37 1075.36 1061.56L969.648 1241.87C966.016 1248.07 959.472 1251.98 952.297 1252.24L701.361 1261.39C696.075 1261.58 690.911 1259.77 686.901 1256.33L480.252 1078.56C475.685 1074.63 473.025 1068.93 472.949 1062.9ZM466.115 840.498C465.997 831.219 471.027 822.639 479.181 818.21L674.684 712.032C680.986 708.609 688.454 708.057 695.19 710.517L951.244 804.016C957.159 806.176 962.042 810.488 964.915 816.092L1079.49 1039.53C1083.39 1047.14 1083.13 1056.21 1078.81 1063.58L973.098 1243.9C968.775 1251.27 960.985 1255.93 952.443 1256.24L701.507 1265.39C695.214 1265.62 689.066 1263.46 684.292 1259.36L477.643 1081.59C472.207 1076.91 469.04 1070.13 468.949 1062.95L466.115 840.498Z" fill="url(#paint45_linear_116_771)"/>
<path opacity="0.681159" fill-rule="evenodd" clip-rule="evenodd" d="M451.756 1050.66L461.198 830.612C461.53 822.873 466.095 815.946 473.074 812.588L671.544 717.099C676.985 714.481 683.29 714.332 688.849 716.69L935.814 821.444C940.715 823.522 944.643 827.385 946.805 832.25L1047.36 1058.57C1050.26 1065.1 1049.64 1072.67 1045.7 1078.65L931.593 1251.82C927.656 1257.8 920.948 1261.36 913.794 1261.27L666.165 1258.16C660.842 1258.09 655.743 1256.01 651.899 1252.32L458.208 1066.72C453.848 1062.54 451.498 1056.69 451.756 1050.66ZM457.202 830.44C457.597 821.228 463.031 812.981 471.34 808.984L669.809 713.494C676.287 710.378 683.793 710.2 690.411 713.007L937.376 817.761C943.21 820.236 947.887 824.834 950.46 830.626L1051.01 1056.94C1054.47 1064.73 1053.73 1073.73 1049.04 1080.85L934.933 1254.02C930.247 1261.14 922.261 1265.37 913.744 1265.27L666.115 1262.16C659.778 1262.08 653.708 1259.59 649.132 1255.21L455.44 1069.61C450.25 1064.63 447.452 1057.67 447.76 1050.48L457.202 830.44Z" fill="url(#paint46_linear_116_771)"/>
<path opacity="0.695652" fill-rule="evenodd" clip-rule="evenodd" d="M431.31 1038.64L452.765 821.673C453.522 814.015 458.407 807.385 465.497 804.392L666.359 719.612C671.935 717.258 678.256 717.425 683.7 720.069L921.109 835.389C925.929 837.73 929.671 841.825 931.57 846.835L1018.12 1075.18C1020.65 1081.85 1019.62 1089.34 1015.39 1095.08L893.34 1260.74C889.111 1266.48 882.259 1269.68 875.143 1269.24L631.407 1254.24C626.059 1253.91 621.039 1251.55 617.375 1247.64L436.886 1055.06C432.747 1050.65 430.715 1044.66 431.31 1038.64ZM448.784 821.28C449.686 812.163 455.501 804.27 463.941 800.707L664.803 715.926C671.442 713.124 678.967 713.323 685.448 716.471L922.857 831.791C928.594 834.578 933.05 839.453 935.31 845.417L1021.86 1073.76C1024.87 1081.7 1023.65 1090.62 1018.61 1097.45L896.56 1263.11C891.526 1269.94 883.368 1273.76 874.897 1273.23L631.161 1258.23C624.795 1257.84 618.819 1255.03 614.457 1250.37L433.968 1057.8C429.04 1052.54 426.621 1045.41 427.33 1038.24L448.784 821.28Z" fill="url(#paint47_linear_116_771)"/>
<path opacity="0.710145" fill-rule="evenodd" clip-rule="evenodd" d="M411.589 1026.88L444.757 813.648C445.931 806.094 451.118 799.776 458.298 797.151L660.984 723.068C666.683 720.985 673.004 721.469 678.319 724.394L905.749 849.572C910.475 852.173 914.018 856.492 915.645 861.635L988.269 1091.17C990.411 1097.94 988.986 1105.34 984.479 1110.83L854.951 1268.62C850.444 1274.11 843.467 1276.95 836.407 1276.17L597.123 1249.66C591.762 1249.07 586.835 1246.44 583.363 1242.31L416.267 1043.63C412.362 1038.99 410.656 1032.88 411.589 1026.88ZM440.804 813.033C442.203 804.041 448.377 796.519 456.925 793.395L659.611 719.311C666.395 716.831 673.92 717.407 680.248 720.89L907.678 846.068C913.304 849.164 917.522 854.306 919.459 860.428L992.082 1089.96C994.633 1098.02 992.936 1106.83 987.57 1113.36L858.043 1271.16C852.677 1277.69 844.372 1281.07 835.967 1280.14L596.683 1253.64C590.3 1252.93 584.435 1249.8 580.302 1244.88L413.206 1046.2C408.557 1040.68 406.526 1033.41 407.636 1026.27L440.804 813.033Z" fill="url(#paint48_linear_116_771)"/>
<path opacity="0.724638" fill-rule="evenodd" clip-rule="evenodd" d="M392.566 1015.43L437.115 806.547C438.698 799.122 444.167 793.13 451.417 790.875L655.366 727.447C661.174 725.641 667.48 726.442 672.652 729.642L889.73 863.957C894.348 866.814 897.679 871.349 899.025 876.61L957.839 1106.51C959.593 1113.36 957.776 1120.64 953.006 1125.87L816.489 1275.47C811.719 1280.7 804.637 1283.17 797.65 1282.05L563.344 1244.46C557.983 1243.6 553.162 1240.7 549.896 1236.36L396.329 1032.45C392.67 1027.59 391.297 1021.38 392.566 1015.43ZM433.203 805.713C435.088 796.873 441.598 789.74 450.229 787.055L654.178 723.628C661.092 721.477 668.599 722.431 674.756 726.24L891.834 860.555C897.332 863.957 901.298 869.356 902.9 875.619L961.714 1105.52C963.802 1113.68 961.639 1122.34 955.961 1128.56L819.443 1278.17C813.765 1284.39 805.335 1287.33 797.017 1286L562.711 1248.41C556.328 1247.39 550.589 1243.93 546.7 1238.77L393.134 1034.85C388.778 1029.07 387.144 1021.68 388.654 1014.6L433.203 805.713Z" fill="url(#paint49_linear_116_771)"/>
<path opacity="0.73913" fill-rule="evenodd" clip-rule="evenodd" d="M374.217 1004.32L429.78 800.382C431.762 793.107 437.492 787.454 444.792 785.569L649.453 732.727C655.357 731.203 661.631 732.32 666.646 735.788L873.046 878.505C877.544 881.615 880.651 886.357 881.707 891.722L926.879 1121.18C928.24 1128.09 926.041 1135.23 921.024 1140.18L778.014 1281.3C772.997 1286.25 765.831 1288.35 758.934 1286.9L530.102 1238.67C524.752 1237.54 520.052 1234.37 517.002 1229.84L377.048 1021.55C373.647 1016.49 372.614 1010.2 374.217 1004.32ZM425.921 799.33C428.281 790.67 435.101 783.94 443.792 781.696L648.453 728.854C655.481 727.04 662.951 728.369 668.921 732.498L875.321 875.215C880.675 878.917 884.374 884.562 885.632 890.949L930.803 1120.4C932.424 1128.64 929.806 1137.13 923.834 1143.03L780.824 1284.14C774.851 1290.04 766.32 1292.54 758.109 1290.81L529.278 1242.59C522.908 1241.24 517.313 1237.47 513.682 1232.07L373.728 1023.78C369.679 1017.76 368.449 1010.27 370.357 1003.27L425.921 799.33Z" fill="url(#paint50_linear_116_771)"/>
<path opacity="0.753623" fill-rule="evenodd" clip-rule="evenodd" d="M356.513 993.575L422.695 795.156C425.064 788.055 431.033 782.751 438.364 781.236L643.196 738.882C649.182 737.644 655.41 739.076 660.254 742.803L855.697 893.181C860.061 896.539 862.932 901.477 863.691 906.932L895.435 1135.15C896.402 1142.1 893.831 1149.08 888.582 1153.74L739.589 1286.11C734.341 1290.77 727.11 1292.51 720.319 1290.73L497.426 1232.33C492.099 1230.93 487.533 1227.5 484.712 1222.77L358.398 1010.98C355.268 1005.73 354.579 999.373 356.513 993.575ZM418.901 793.89C421.72 785.437 428.827 779.123 437.554 777.319L642.386 734.965C649.512 733.492 656.926 735.196 662.693 739.633L858.136 890.011C863.332 894.009 866.75 899.887 867.653 906.381L899.397 1134.6C900.548 1142.88 897.487 1151.18 891.239 1156.73L742.245 1289.1C735.998 1294.65 727.389 1296.71 719.305 1294.6L496.412 1236.2C490.07 1234.53 484.635 1230.45 481.277 1224.82L354.963 1013.02C351.236 1006.78 350.416 999.212 352.719 992.309L418.901 793.89Z" fill="url(#paint51_linear_116_771)"/>
<path opacity="0.768116" fill-rule="evenodd" clip-rule="evenodd" d="M339.426 983.226L415.8 790.872C418.543 783.965 424.731 779.022 432.072 777.874L636.547 745.883C642.601 744.936 648.766 746.68 653.427 750.658L837.683 907.948C841.902 911.549 844.524 916.673 844.978 922.201L863.553 1148.42C864.125 1155.39 861.193 1162.18 855.731 1166.55L701.271 1289.93C695.809 1294.29 688.533 1295.65 681.864 1293.55L465.34 1225.46C460.049 1223.8 455.631 1220.11 453.051 1215.2L340.355 1000.74C337.504 995.32 337.165 988.921 339.426 983.226ZM412.083 789.396C415.347 781.174 422.714 775.289 431.454 773.922L635.928 741.931C643.135 740.803 650.476 742.88 656.024 747.616L840.28 904.906C845.302 909.193 848.424 915.293 848.965 921.874L867.54 1148.09C868.221 1156.39 864.73 1164.48 858.227 1169.67L703.768 1293.05C697.265 1298.25 688.604 1299.87 680.664 1297.37L464.14 1229.28C457.841 1227.3 452.582 1222.9 449.51 1217.06L336.814 1002.61C333.42 996.148 333.017 988.53 335.709 981.75L412.083 789.396Z" fill="url(#paint52_linear_116_771)"/>
<path opacity="0.782609" fill-rule="evenodd" clip-rule="evenodd" d="M322.925 973.303L409.038 787.527C412.14 780.836 418.524 776.262 425.857 775.478L629.459 753.698C635.568 753.045 641.656 755.099 646.12 759.319L819.006 922.77C823.067 926.608 825.43 931.907 825.573 937.493L831.282 1160.96C831.459 1167.92 828.177 1174.52 822.519 1178.57L663.119 1292.77C657.461 1296.82 650.161 1297.81 643.629 1295.4L433.87 1218.11C428.627 1216.18 424.37 1212.24 422.041 1207.16L322.889 990.886C320.328 985.302 320.342 978.877 322.925 973.303ZM405.409 785.845C409.102 777.879 416.702 772.434 425.432 771.501L629.034 749.721C636.306 748.943 643.553 751.389 648.868 756.413L821.754 919.863C826.588 924.433 829.401 930.741 829.571 937.391L835.28 1160.86C835.492 1169.15 831.585 1177 824.848 1181.82L665.449 1296.02C658.712 1300.85 650.022 1302.02 642.246 1299.15L432.487 1221.87C426.245 1219.57 421.177 1214.87 418.405 1208.83L319.252 992.553C316.205 985.905 316.221 978.256 319.296 971.621L405.409 785.845Z" fill="url(#paint53_linear_116_771)"/>
<path opacity="0.797101" fill-rule="evenodd" clip-rule="evenodd" d="M306.979 963.831L402.352 785.118C405.797 778.661 412.355 774.464 419.661 774.04L621.89 762.296C628.039 761.938 634.034 764.298 638.289 768.751L799.671 937.611C803.561 941.681 805.654 947.143 805.48 952.77L798.667 1172.78C798.452 1179.7 794.834 1186.08 788.997 1189.82L625.19 1294.65C619.352 1298.38 612.048 1299 605.668 1296.29L403.038 1210.32C397.855 1208.12 393.772 1203.94 391.705 1198.7L305.971 981.427C303.711 975.698 304.079 969.265 306.979 963.831ZM398.823 783.234C402.925 775.548 410.732 770.552 419.429 770.047L621.658 758.302C628.978 757.877 636.115 760.687 641.181 765.987L802.563 934.847C807.194 939.693 809.685 946.195 809.478 952.894L802.665 1172.9C802.409 1181.15 798.102 1188.74 791.153 1193.18L627.346 1298.02C620.397 1302.46 611.701 1303.2 604.106 1299.97L401.476 1214.01C395.305 1211.39 390.445 1206.4 387.985 1200.17L302.251 982.895C299.559 976.074 299.998 968.417 303.45 961.948L398.823 783.234Z" fill="url(#paint54_linear_116_771)"/>
<path opacity="0.811594" fill-rule="evenodd" clip-rule="evenodd" d="M291.554 954.835L395.684 783.634C399.457 777.432 406.166 773.617 413.426 773.548L613.798 771.638C619.973 771.579 625.86 774.241 629.895 778.915L779.684 952.437C783.392 956.731 785.204 962.344 784.707 967.996L765.756 1183.85C765.152 1190.72 761.212 1196.86 755.215 1200.27L587.536 1295.59C581.539 1299 574.25 1299.25 568.036 1296.25L372.862 1202.13C367.751 1199.67 363.856 1195.24 362.062 1189.86L289.573 972.388C287.621 966.53 288.345 960.11 291.554 954.835ZM392.267 781.556C396.758 774.171 404.745 769.631 413.388 769.548L613.76 767.638C621.111 767.568 628.119 770.737 632.923 776.301L782.712 949.823C787.126 954.936 789.283 961.617 788.692 968.345L769.74 1184.2C769.022 1192.38 764.331 1199.69 757.192 1203.75L589.513 1299.07C582.374 1303.13 573.696 1303.42 566.298 1299.86L371.124 1205.73C365.04 1202.8 360.403 1197.53 358.267 1191.12L285.778 973.653C283.454 966.68 284.316 959.036 288.136 952.756L392.267 781.556Z" fill="url(#paint55_linear_116_771)"/>
<path opacity="0.826087" fill-rule="evenodd" clip-rule="evenodd" d="M276.617 946.334L388.981 783.066C393.064 777.134 399.901 773.707 407.096 773.987L605.145 781.688C611.331 781.929 617.095 784.887 620.898 789.771L759.053 967.212C762.566 971.725 764.088 977.474 763.265 983.134L732.596 1194.18C731.608 1200.97 727.362 1206.85 721.223 1209.93L550.212 1295.63C544.074 1298.71 536.819 1298.59 530.785 1295.32L343.36 1193.57C338.334 1190.85 334.638 1186.19 333.126 1180.67L273.663 963.793C272.026 957.822 273.107 951.434 276.617 946.334ZM385.686 780.798C390.546 773.736 398.686 769.657 407.252 769.99L605.3 777.691C612.664 777.978 619.527 781.499 624.055 787.314L762.209 964.755C766.392 970.127 768.203 976.972 767.224 983.709L736.554 1194.75C735.379 1202.84 730.323 1209.84 723.015 1213.51L552.005 1299.21C544.697 1302.87 536.06 1302.73 528.876 1298.83L341.452 1197.09C335.468 1193.84 331.069 1188.29 329.268 1181.73L269.805 964.85C267.857 957.743 269.143 950.138 273.322 944.067L385.686 780.798Z" fill="url(#paint56_linear_116_771)"/>
<path opacity="0.84058" fill-rule="evenodd" clip-rule="evenodd" d="M262.133 938.349L382.189 783.396C386.562 777.752 393.504 774.716 400.618 775.338L595.893 792.406C602.076 792.947 607.704 796.195 611.265 801.278L737.788 981.905C741.096 986.627 742.317 992.501 741.165 998.149L699.234 1203.75C697.868 1210.45 693.331 1216.06 687.071 1218.8L513.268 1294.8C507.008 1297.54 499.807 1297.06 493.965 1293.51L314.547 1184.7C309.617 1181.71 306.134 1176.82 304.913 1171.19L258.21 955.659C256.895 949.593 258.331 943.256 262.133 938.349ZM379.027 780.947C384.233 774.227 392.497 770.613 400.966 771.353L596.241 788.422C603.602 789.065 610.302 792.932 614.541 798.984L741.064 979.61C745.002 985.231 746.455 992.224 745.084 998.949L703.153 1204.55C701.528 1212.52 696.126 1219.21 688.673 1222.46L514.871 1298.46C507.418 1301.72 498.845 1301.15 491.89 1296.93L312.472 1188.12C306.604 1184.56 302.457 1178.74 301.004 1172.04L254.3 956.506C252.736 949.284 254.445 941.741 258.971 935.9L379.027 780.947Z" fill="url(#paint57_linear_116_771)"/>
<path opacity="0.855072" fill-rule="evenodd" clip-rule="evenodd" d="M248.067 930.897L375.254 784.609C379.899 779.266 386.923 776.624 393.937 777.579L586.01 803.75C592.176 804.59 597.652 808.122 600.961 813.392L715.9 996.482C718.991 1001.4 719.903 1007.39 718.419 1013.01L665.716 1212.59C663.98 1219.16 659.169 1224.49 652.807 1226.88L476.751 1293.12C470.388 1295.51 463.26 1294.68 457.622 1290.88L286.434 1175.54C281.613 1172.29 278.354 1167.19 277.433 1161.45L243.18 948.003C242.194 941.859 243.984 935.594 248.067 930.897ZM372.236 781.984C377.765 775.624 386.127 772.478 394.477 773.616L586.55 799.786C593.89 800.787 600.409 804.991 604.348 811.265L719.288 994.355C722.967 1000.22 724.053 1007.34 722.286 1014.03L669.583 1213.61C667.517 1221.43 661.79 1227.77 654.215 1230.62L478.16 1296.86C470.585 1299.71 462.099 1298.72 455.387 1294.2L284.199 1178.86C278.46 1174.99 274.58 1168.92 273.484 1162.08L239.231 948.637C238.057 941.322 240.188 933.864 245.049 928.273L372.236 781.984Z" fill="url(#paint58_linear_116_771)"/>
<path opacity="0.869565" fill-rule="evenodd" clip-rule="evenodd" d="M234.384 923.992L368.127 786.681C373.023 781.655 380.105 779.406 387.004 780.687L575.464 815.676C581.599 816.815 586.909 820.622 589.956 826.067L693.403 1010.91C696.266 1016.03 696.861 1022.11 695.043 1027.68L632.087 1220.68C629.99 1227.11 624.924 1232.13 618.478 1234.18L440.708 1290.63C434.262 1292.68 427.225 1291.5 421.803 1287.46L259.031 1166.14C254.331 1162.64 251.309 1157.33 250.696 1151.5L228.543 940.841C227.89 934.636 230.031 928.462 234.384 923.992ZM365.262 783.891C371.09 777.907 379.522 775.229 387.734 776.754L576.194 811.743C583.497 813.099 589.819 817.632 593.447 824.114L696.894 1008.96C700.302 1015.05 701.01 1022.28 698.845 1028.92L635.89 1221.92C633.393 1229.57 627.363 1235.55 619.689 1237.99L441.919 1294.45C434.245 1296.88 425.868 1295.47 419.412 1290.66L256.641 1169.35C251.045 1165.18 247.448 1158.86 246.718 1151.92L224.565 941.259C223.788 933.872 226.336 926.522 231.519 921.201L365.262 783.891Z" fill="url(#paint59_linear_116_771)"/>
<path opacity="0.884058" fill-rule="evenodd" clip-rule="evenodd" d="M221.048 917.647L360.759 789.591C365.884 784.893 373.002 783.037 379.769 784.633L564.228 828.139C570.317 829.575 575.448 833.651 578.225 839.257L670.312 1025.16C672.937 1030.46 673.206 1036.62 671.053 1042.13L598.393 1228.03C595.944 1234.29 590.642 1239.01 584.133 1240.7L405.181 1287.38C398.672 1289.08 391.744 1287.55 386.548 1283.28L232.347 1156.55C227.778 1152.8 225.005 1147.29 224.707 1141.39L214.264 934.185C213.949 927.937 216.436 921.874 221.048 917.647ZM358.056 786.642C364.158 781.05 372.632 778.84 380.687 780.74L565.146 824.245C572.395 825.955 578.504 830.807 581.809 837.481L673.896 1023.39C677.021 1029.69 677.341 1037.03 674.779 1043.58L602.118 1229.48C599.203 1236.94 592.891 1242.55 585.143 1244.57L406.191 1291.25C398.442 1293.27 390.194 1291.46 384.008 1286.37L229.807 1159.64C224.369 1155.17 221.066 1148.62 220.712 1141.59L210.269 934.387C209.894 926.949 212.855 919.731 218.345 914.699L358.056 786.642Z" fill="url(#paint60_linear_116_771)"/>
<path opacity="0.898551" fill-rule="evenodd" clip-rule="evenodd" d="M208.021 911.872L353.103 793.311C358.436 788.952 365.567 787.486 372.186 789.387L552.276 841.093C558.305 842.824 563.244 847.159 565.743 852.912L646.642 1039.21C649.018 1044.68 648.955 1050.9 646.468 1056.33L564.676 1234.65C561.887 1240.73 556.369 1245.12 549.817 1246.47L370.211 1283.39C363.659 1284.74 356.858 1282.89 351.896 1278.4L206.385 1146.81C201.96 1142.81 199.446 1137.11 199.47 1131.15L200.31 928.046C200.336 921.774 203.164 915.842 208.021 911.872ZM350.571 790.213C356.92 785.025 365.409 783.28 373.29 785.542L553.379 837.248C560.557 839.309 566.437 844.47 569.412 851.319L650.311 1037.61C653.14 1044.13 653.065 1051.54 650.104 1057.99L568.312 1236.32C564.992 1243.56 558.423 1248.78 550.623 1250.38L371.017 1287.31C363.217 1288.92 355.12 1286.71 349.213 1281.37L203.702 1149.77C198.434 1145.01 195.441 1138.23 195.47 1131.13L196.31 928.03C196.34 920.563 199.708 913.5 205.49 908.775L350.571 790.213Z" fill="url(#paint61_linear_116_771)"/>
<path opacity="0.913043" fill-rule="evenodd" clip-rule="evenodd" d="M195.268 906.675L345.113 797.811C350.631 793.802 357.753 792.723 364.211 794.917L539.585 854.49C545.54 856.513 550.275 861.098 552.488 866.985L622.412 1053.01C624.53 1058.65 624.128 1064.92 621.307 1070.24L530.98 1240.56C527.864 1246.43 522.15 1250.49 515.575 1251.48L335.836 1278.72C329.26 1279.72 322.602 1277.54 317.885 1272.86L181.147 1136.95C176.877 1132.71 174.634 1126.84 174.987 1120.83L186.647 922.433C187.016 916.155 190.18 910.372 195.268 906.675ZM342.762 794.575C349.331 789.802 357.809 788.517 365.497 791.129L540.872 850.702C547.961 853.111 553.598 858.569 556.232 865.578L626.156 1051.61C628.678 1058.31 628.199 1065.78 624.841 1072.12L534.514 1242.43C530.805 1249.43 524.002 1254.25 516.174 1255.44L336.435 1282.68C328.607 1283.86 320.681 1281.27 315.065 1275.69L178.327 1139.79C173.244 1134.74 170.573 1127.75 170.994 1120.59L182.654 922.198C183.093 914.724 186.859 907.84 192.917 903.439L342.762 794.575Z" fill="url(#paint62_linear_116_771)"/>
<path opacity="0.927536" fill-rule="evenodd" clip-rule="evenodd" d="M182.752 902.062L336.749 803.061C342.429 799.409 349.519 798.712 355.801 801.187L526.137 868.282C532.005 870.594 536.523 875.419 538.443 881.425L597.641 1066.56C599.491 1072.35 598.744 1078.65 595.592 1083.85L497.346 1245.76C493.917 1251.41 488.027 1255.12 481.449 1255.77L302.089 1273.41C295.511 1274.06 289.012 1271.57 284.547 1266.7L156.634 1127.03C152.53 1122.55 150.568 1116.51 151.256 1110.47L173.243 917.351C173.956 911.086 177.448 905.472 182.752 902.062ZM334.586 799.696C341.348 795.349 349.788 794.519 357.267 797.465L527.603 864.561C534.588 867.312 539.967 873.057 542.253 880.207L601.451 1065.34C603.654 1072.23 602.764 1079.74 599.011 1085.92L500.766 1247.84C496.684 1254.56 489.672 1258.98 481.841 1259.75L302.481 1277.39C294.649 1278.16 286.912 1275.2 281.597 1269.4L153.685 1129.73C148.799 1124.4 146.463 1117.21 147.281 1110.02L169.269 916.899C170.118 909.44 174.274 902.757 180.589 898.698L334.586 799.696Z" fill="url(#paint63_linear_116_771)"/>
<path opacity="0.942029" fill-rule="evenodd" clip-rule="evenodd" d="M170.437 898.037L327.969 809.027C333.788 805.739 340.824 805.417 346.918 808.16L511.916 882.421C517.682 885.016 521.972 890.071 523.594 896.182L572.348 1079.82C573.923 1085.74 572.825 1092.07 569.344 1097.12L463.814 1250.28C460.087 1255.69 454.043 1259.04 447.481 1259.34L269.004 1267.5C262.442 1267.8 256.117 1265.02 251.912 1259.97L132.844 1117.08C128.916 1112.37 127.246 1106.17 128.273 1100.12L160.064 912.806C161.122 906.572 164.932 901.147 170.437 898.037ZM326.001 805.544C332.928 801.63 341.305 801.247 348.56 804.513L513.558 878.773C520.422 881.863 525.529 887.88 527.46 895.155L576.215 1078.79C578.089 1085.85 576.782 1093.37 572.638 1099.39L467.108 1252.55C462.671 1258.99 455.476 1262.98 447.664 1263.34L269.187 1271.5C261.375 1271.86 253.845 1268.54 248.839 1262.53L129.771 1119.64C125.095 1114.03 123.107 1106.65 124.329 1099.45L156.12 912.137C157.38 904.716 161.916 898.257 168.47 894.554L326.001 805.544Z" fill="url(#paint64_linear_116_771)"/>
<path opacity="0.956522" fill-rule="evenodd" clip-rule="evenodd" d="M158.287 894.599L318.736 815.672C324.669 812.754 331.631 812.8 337.525 815.798L496.908 896.855C502.559 899.729 506.609 905.002 507.929 911.204L546.557 1092.76C547.846 1098.82 546.394 1105.14 542.588 1110.03L430.423 1254.13C426.414 1259.28 420.238 1262.27 413.711 1262.23L236.608 1261.05C230.082 1261 223.946 1257.93 220.006 1252.72L109.771 1107.15C106.031 1102.21 104.662 1095.87 106.032 1089.82L147.076 908.799C148.478 902.617 152.598 897.398 158.287 894.599ZM316.97 812.083C324.034 808.608 332.322 808.664 339.338 812.232L498.721 893.29C505.449 896.711 510.27 902.989 511.841 910.371L550.469 1091.93C552.004 1099.14 550.275 1106.67 545.745 1112.49L433.579 1256.58C428.807 1262.71 421.454 1266.28 413.685 1266.23L236.582 1265.05C228.812 1265 221.508 1261.33 216.817 1255.14L106.582 1109.56C102.129 1103.68 100.5 1096.13 102.131 1088.94L143.175 907.915C144.844 900.554 149.749 894.342 156.522 891.01L316.97 812.083Z" fill="url(#paint65_linear_116_771)"/>
<path opacity="0.971014" fill-rule="evenodd" clip-rule="evenodd" d="M146.267 891.75L309.015 822.96C315.039 820.414 321.906 820.819 327.588 824.057L481.103 911.536C486.626 914.683 490.426 920.163 491.438 926.439L520.289 1105.37C521.285 1111.55 519.474 1117.85 515.349 1122.55L397.208 1257.33C392.934 1262.2 386.649 1264.83 380.177 1264.45L204.927 1254.09C198.456 1253.71 192.524 1250.36 188.854 1245.01L87.4076 1097.27C83.8651 1092.11 82.8084 1085.64 84.5254 1079.62L134.248 905.332C135.992 899.219 140.411 894.225 146.267 891.75ZM307.458 819.275C314.63 816.244 322.804 816.727 329.569 820.582L483.083 908.061C489.658 911.807 494.182 918.331 495.387 925.802L524.238 1104.73C525.424 1112.09 523.268 1119.59 518.357 1125.19L400.216 1259.96C395.128 1265.77 387.646 1268.9 379.942 1268.44L204.691 1258.08C196.987 1257.63 189.925 1253.64 185.557 1247.28L84.1101 1099.53C79.8929 1093.39 78.6349 1085.69 80.6789 1078.52L130.402 904.235C132.478 896.957 137.739 891.012 144.709 888.066L307.458 819.275Z" fill="url(#paint66_linear_116_771)"/>
<path opacity="0.985507" fill-rule="evenodd" clip-rule="evenodd" d="M134.34 889.486L298.775 830.85C304.865 828.678 311.617 829.433 317.077 832.897L464.494 926.412C469.876 929.826 473.417 935.5 474.118 941.835L493.569 1117.62C494.264 1123.91 492.091 1130.17 487.651 1134.67L364.205 1259.9C359.686 1264.49 353.313 1266.74 346.916 1266.03L173.984 1246.69C167.586 1245.97 161.87 1242.36 158.475 1236.89L65.7451 1087.48C62.4106 1082.11 61.6745 1075.52 63.7413 1069.55L121.547 902.402C123.63 896.378 128.337 891.627 134.34 889.486ZM297.431 827.082C304.682 824.497 312.719 825.396 319.22 829.519L466.637 923.034C473.044 927.099 477.259 933.854 478.093 941.396L497.545 1117.18C498.372 1124.66 495.785 1132.12 490.5 1137.48L367.054 1262.71C361.674 1268.17 354.087 1270.86 346.471 1270L173.539 1250.66C165.923 1249.81 159.118 1245.51 155.076 1239L62.3465 1089.59C58.3768 1083.2 57.5005 1075.35 59.961 1068.24L117.767 901.095C120.247 893.924 125.85 888.267 132.997 885.718L297.431 827.082Z" fill="url(#paint67_linear_116_771)"/>
<path fill-rule="evenodd" clip-rule="evenodd" d="M122.474 887.802L287.985 839.301C294.118 837.504 300.735 838.597 305.964 842.272L447.078 941.433C452.307 945.108 455.578 950.963 455.965 957.342L466.42 1129.5C466.808 1135.87 464.269 1142.08 459.524 1146.36L331.447 1261.87C326.702 1266.15 320.265 1268.04 313.96 1267L143.796 1238.88C137.491 1237.84 132.003 1233.99 128.886 1228.41L44.7715 1077.84C41.6547 1072.26 41.2481 1065.56 43.6668 1059.65L108.942 900.007C111.36 894.091 116.341 889.599 122.474 887.802ZM286.86 835.463C294.161 833.323 302.039 834.625 308.264 838.999L449.377 938.161C455.602 942.535 459.497 949.506 459.958 957.1L470.413 1129.25C470.874 1136.85 467.852 1144.24 462.202 1149.33L334.126 1264.84C328.477 1269.94 320.814 1272.18 313.308 1270.94L143.144 1242.83C135.638 1241.59 129.104 1237 125.394 1230.36L41.2795 1079.79C37.569 1073.15 37.085 1065.18 39.9644 1058.13L105.239 898.493C108.118 891.451 114.048 886.103 121.349 883.963L286.86 835.463Z" fill="url(#paint68_linear_116_771)"/>
</g>
<defs>
<linearGradient id="paint0_linear_116_771" x1="1879.87" y1="1433.95" x2="1583.2" y2="296.511" gradientUnits="userSpaceOnUse">
<stop stop-color="#FF1CF7"/>
<stop offset="1" stop-color="#00F0FF"/>
</linearGradient>
<linearGradient id="paint1_linear_116_771" x1="1828.28" y1="1438.28" x2="1593.64" y2="297.036" gradientUnits="userSpaceOnUse">
<stop stop-color="#FF1CF7"/>
<stop offset="1" stop-color="#00F0FF"/>
</linearGradient>
<linearGradient id="paint2_linear_116_771" x1="1776.9" y1="1440.99" x2="1603.86" y2="299.295" gradientUnits="userSpaceOnUse">
<stop stop-color="#FF1CF7"/>
<stop offset="1" stop-color="#00F0FF"/>
</linearGradient>
<linearGradient id="paint3_linear_116_771" x1="1725.8" y1="1442.12" x2="1613.77" y2="303.26" gradientUnits="userSpaceOnUse">
<stop stop-color="#FF1CF7"/>
<stop offset="1" stop-color="#00F0FF"/>
</linearGradient>
<linearGradient id="paint4_linear_116_771" x1="1675.08" y1="1441.7" x2="1623.27" y2="308.896" gradientUnits="userSpaceOnUse">
<stop stop-color="#FF1CF7"/>
<stop offset="1" stop-color="#00F0FF"/>
</linearGradient>
<linearGradient id="paint5_linear_116_771" x1="1624.81" y1="1439.76" x2="1632.29" y2="316.168" gradientUnits="userSpaceOnUse">
<stop stop-color="#FF1CF7"/>
<stop offset="1" stop-color="#00F0FF"/>
</linearGradient>
<linearGradient id="paint6_linear_116_771" x1="1575.07" y1="1436.33" x2="1640.74" y2="325.031" gradientUnits="userSpaceOnUse">
<stop stop-color="#FF1CF7"/>
<stop offset="1" stop-color="#00F0FF"/>
</linearGradient>
<linearGradient id="paint7_linear_116_771" x1="1525.94" y1="1431.47" x2="1648.53" y2="335.438" gradientUnits="userSpaceOnUse">
<stop stop-color="#FF1CF7"/>
<stop offset="1" stop-color="#00F0FF"/>
</linearGradient>
<linearGradient id="paint8_linear_116_771" x1="1477.5" y1="1425.21" x2="1655.58" y2="347.34" gradientUnits="userSpaceOnUse">
<stop stop-color="#FF1CF7"/>
<stop offset="1" stop-color="#00F0FF"/>
</linearGradient>
<linearGradient id="paint9_linear_116_771" x1="1429.8" y1="1417.62" x2="1661.83" y2="360.68" gradientUnits="userSpaceOnUse">
<stop stop-color="#FF1CF7"/>
<stop offset="1" stop-color="#00F0FF"/>
</linearGradient>
<linearGradient id="paint10_linear_116_771" x1="1382.93" y1="1408.75" x2="1667.2" y2="375.401" gradientUnits="userSpaceOnUse">
<stop stop-color="#FF1CF7"/>
<stop offset="1" stop-color="#00F0FF"/>
</linearGradient>
<linearGradient id="paint11_linear_116_771" x1="1336.93" y1="1398.65" x2="1671.63" y2="391.439" gradientUnits="userSpaceOnUse">
<stop stop-color="#FF1CF7"/>
<stop offset="1" stop-color="#00F0FF"/>
</linearGradient>
<linearGradient id="paint12_linear_116_771" x1="1291.87" y1="1387.38" x2="1675.04" y2="408.731" gradientUnits="userSpaceOnUse">
<stop stop-color="#FF1CF7"/>
<stop offset="1" stop-color="#00F0FF"/>
</linearGradient>
<linearGradient id="paint13_linear_116_771" x1="1247.81" y1="1375.01" x2="1677.39" y2="427.207" gradientUnits="userSpaceOnUse">
<stop stop-color="#FF1CF7"/>
<stop offset="1" stop-color="#00F0FF"/>
</linearGradient>
<linearGradient id="paint14_linear_116_771" x1="1204.79" y1="1361.61" x2="1678.61" y2="446.797" gradientUnits="userSpaceOnUse">
<stop stop-color="#FF1CF7"/>
<stop offset="1" stop-color="#00F0FF"/>
</linearGradient>
<linearGradient id="paint15_linear_116_771" x1="1162.86" y1="1347.24" x2="1678.67" y2="467.427" gradientUnits="userSpaceOnUse">
<stop stop-color="#FF1CF7"/>
<stop offset="1" stop-color="#00F0FF"/>
</linearGradient>
<linearGradient id="paint16_linear_116_771" x1="1122.07" y1="1331.97" x2="1677.5" y2="489.022" gradientUnits="userSpaceOnUse">
<stop stop-color="#FF1CF7"/>
<stop offset="1" stop-color="#00F0FF"/>
</linearGradient>
<linearGradient id="paint17_linear_116_771" x1="1082.44" y1="1315.87" x2="1675.08" y2="511.504" gradientUnits="userSpaceOnUse">
<stop stop-color="#FF1CF7"/>
<stop offset="1" stop-color="#00F0FF"/>
</linearGradient>
<linearGradient id="paint18_linear_116_771" x1="1044.02" y1="1299.03" x2="1671.36" y2="534.795" gradientUnits="userSpaceOnUse">
<stop stop-color="#FF1CF7"/>
<stop offset="1" stop-color="#00F0FF"/>
</linearGradient>
<linearGradient id="paint19_linear_116_771" x1="1006.83" y1="1281.5" x2="1666.31" y2="558.814" gradientUnits="userSpaceOnUse">
<stop stop-color="#FF1CF7"/>
<stop offset="1" stop-color="#00F0FF"/>
</linearGradient>
<linearGradient id="paint20_linear_116_771" x1="970.9" y1="1263.38" x2="1659.92" y2="583.48" gradientUnits="userSpaceOnUse">
<stop stop-color="#FF1CF7"/>
<stop offset="1" stop-color="#00F0FF"/>
</linearGradient>
<linearGradient id="paint21_linear_116_771" x1="936.248" y1="1244.72" x2="1652.15" y2="608.711" gradientUnits="userSpaceOnUse">
<stop stop-color="#FF1CF7"/>
<stop offset="1" stop-color="#00F0FF"/>
</linearGradient>
<linearGradient id="paint22_linear_116_771" x1="902.888" y1="1225.62" x2="1642.99" y2="634.424" gradientUnits="userSpaceOnUse">
<stop stop-color="#FF1CF7"/>
<stop offset="1" stop-color="#00F0FF"/>
</linearGradient>
<linearGradient id="paint23_linear_116_771" x1="870.833" y1="1206.15" x2="1632.42" y2="660.538" gradientUnits="userSpaceOnUse">
<stop stop-color="#FF1CF7"/>
<stop offset="1" stop-color="#00F0FF"/>
</linearGradient>
<linearGradient id="paint24_linear_116_771" x1="840.089" y1="1186.38" x2="1620.45" y2="686.969" gradientUnits="userSpaceOnUse">
<stop stop-color="#FF1CF7"/>
<stop offset="1" stop-color="#00F0FF"/>
</linearGradient>
<linearGradient id="paint25_linear_116_771" x1="810.657" y1="1166.4" x2="1607.07" y2="713.635" gradientUnits="userSpaceOnUse">
<stop stop-color="#FF1CF7"/>
<stop offset="1" stop-color="#00F0FF"/>
</linearGradient>
<linearGradient id="paint26_linear_116_771" x1="782.537" y1="1146.27" x2="1592.28" y2="740.455" gradientUnits="userSpaceOnUse">
<stop stop-color="#FF1CF7"/>
<stop offset="1" stop-color="#00F0FF"/>
</linearGradient>
<linearGradient id="paint27_linear_116_771" x1="755.72" y1="1126.07" x2="1576.08" y2="767.348" gradientUnits="userSpaceOnUse">
<stop stop-color="#FF1CF7"/>
<stop offset="1" stop-color="#00F0FF"/>
</linearGradient>
<linearGradient id="paint28_linear_116_771" x1="730.197" y1="1105.87" x2="1558.5" y2="794.235" gradientUnits="userSpaceOnUse">
<stop stop-color="#FF1CF7"/>
<stop offset="1" stop-color="#00F0FF"/>
</linearGradient>
<linearGradient id="paint29_linear_116_771" x1="705.952" y1="1085.76" x2="1539.54" y2="821.038" gradientUnits="userSpaceOnUse">
<stop stop-color="#FF1CF7"/>
<stop offset="1" stop-color="#00F0FF"/>
</linearGradient>
<linearGradient id="paint30_linear_116_771" x1="682.967" y1="1065.8" x2="1519.23" y2="847.681" gradientUnits="userSpaceOnUse">
<stop stop-color="#FF1CF7"/>
<stop offset="1" stop-color="#00F0FF"/>
</linearGradient>
<linearGradient id="paint31_linear_116_771" x1="661.218" y1="1046.05" x2="1497.59" y2="874.089" gradientUnits="userSpaceOnUse">
<stop stop-color="#FF1CF7"/>
<stop offset="1" stop-color="#00F0FF"/>
</linearGradient>
<linearGradient id="paint32_linear_116_771" x1="640.68" y1="1026.59" x2="1474.64" y2="900.19" gradientUnits="userSpaceOnUse">
<stop stop-color="#FF1CF7"/>
<stop offset="1" stop-color="#00F0FF"/>
</linearGradient>
<linearGradient id="paint33_linear_116_771" x1="621.321" y1="1007.48" x2="1450.43" y2="925.914" gradientUnits="userSpaceOnUse">
<stop stop-color="#FF1CF7"/>
<stop offset="1" stop-color="#00F0FF"/>
</linearGradient>
<linearGradient id="paint34_linear_116_771" x1="603.109" y1="988.779" x2="1424.99" y2="951.195" gradientUnits="userSpaceOnUse">
<stop stop-color="#FF1CF7"/>
<stop offset="1" stop-color="#00F0FF"/>
</linearGradient>
<linearGradient id="paint35_linear_116_771" x1="586.007" y1="970.554" x2="1398.35" y2="975.966" gradientUnits="userSpaceOnUse">
<stop stop-color="#FF1CF7"/>
<stop offset="1" stop-color="#00F0FF"/>
</linearGradient>
<linearGradient id="paint36_linear_116_771" x1="569.974" y1="952.86" x2="1370.56" y2="1000.17" gradientUnits="userSpaceOnUse">
<stop stop-color="#FF1CF7"/>
<stop offset="1" stop-color="#00F0FF"/>
</linearGradient>
<linearGradient id="paint37_linear_116_771" x1="554.968" y1="935.751" x2="1341.67" y2="1023.74" gradientUnits="userSpaceOnUse">
<stop stop-color="#FF1CF7"/>
<stop offset="1" stop-color="#00F0FF"/>
</linearGradient>
<linearGradient id="paint38_linear_116_771" x1="540.942" y1="919.278" x2="1311.73" y2="1046.63" gradientUnits="userSpaceOnUse">
<stop stop-color="#FF1CF7"/>
<stop offset="1" stop-color="#00F0FF"/>
</linearGradient>
<linearGradient id="paint39_linear_116_771" x1="527.85" y1="903.49" x2="1280.78" y2="1068.78" gradientUnits="userSpaceOnUse">
<stop stop-color="#FF1CF7"/>
<stop offset="1" stop-color="#00F0FF"/>
</linearGradient>
<linearGradient id="paint40_linear_116_771" x1="515.64" y1="888.431" x2="1248.89" y2="1090.15" gradientUnits="userSpaceOnUse">
<stop stop-color="#FF1CF7"/>
<stop offset="1" stop-color="#00F0FF"/>
</linearGradient>
<linearGradient id="paint41_linear_116_771" x1="504.26" y1="874.144" x2="1216.1" y2="1110.69" gradientUnits="userSpaceOnUse">
<stop stop-color="#FF1CF7"/>
<stop offset="1" stop-color="#00F0FF"/>
</linearGradient>
<linearGradient id="paint42_linear_116_771" x1="493.655" y1="860.665" x2="1182.48" y2="1130.36" gradientUnits="userSpaceOnUse">
<stop stop-color="#FF1CF7"/>
<stop offset="1" stop-color="#00F0FF"/>
</linearGradient>
<linearGradient id="paint43_linear_116_771" x1="483.769" y1="848.031" x2="1148.08" y2="1149.12" gradientUnits="userSpaceOnUse">
<stop stop-color="#FF1CF7"/>
<stop offset="1" stop-color="#00F0FF"/>
</linearGradient>
<linearGradient id="paint44_linear_116_771" x1="474.544" y1="836.27" x2="1112.98" y2="1166.94" gradientUnits="userSpaceOnUse">
<stop stop-color="#FF1CF7"/>
<stop offset="1" stop-color="#00F0FF"/>
</linearGradient>
<linearGradient id="paint45_linear_116_771" x1="465.923" y1="825.411" x2="1077.23" y2="1183.8" gradientUnits="userSpaceOnUse">
<stop stop-color="#FF1CF7"/>
<stop offset="1" stop-color="#00F0FF"/>
</linearGradient>
<linearGradient id="paint46_linear_116_771" x1="457.844" y1="815.477" x2="1040.89" y2="1199.66" gradientUnits="userSpaceOnUse">
<stop stop-color="#FF1CF7"/>
<stop offset="1" stop-color="#00F0FF"/>
</linearGradient>
<linearGradient id="paint47_linear_116_771" x1="450.247" y1="806.487" x2="1004.03" y2="1214.5" gradientUnits="userSpaceOnUse">
<stop stop-color="#FF1CF7"/>
<stop offset="1" stop-color="#00F0FF"/>
</linearGradient>
<linearGradient id="paint48_linear_116_771" x1="443.071" y1="798.458" x2="966.726" y2="1228.31" gradientUnits="userSpaceOnUse">
<stop stop-color="#FF1CF7"/>
<stop offset="1" stop-color="#00F0FF"/>
</linearGradient>
<linearGradient id="paint49_linear_116_771" x1="436.255" y1="791.401" x2="929.031" y2="1241.08" gradientUnits="userSpaceOnUse">
<stop stop-color="#FF1CF7"/>
<stop offset="1" stop-color="#00F0FF"/>
</linearGradient>
<linearGradient id="paint50_linear_116_771" x1="429.737" y1="785.325" x2="891.016" y2="1252.79" gradientUnits="userSpaceOnUse">
<stop stop-color="#FF1CF7"/>
<stop offset="1" stop-color="#00F0FF"/>
</linearGradient>
<linearGradient id="paint51_linear_116_771" x1="423.456" y1="780.234" x2="852.747" y2="1263.45" gradientUnits="userSpaceOnUse">
<stop stop-color="#FF1CF7"/>
<stop offset="1" stop-color="#00F0FF"/>
</linearGradient>
<linearGradient id="paint52_linear_116_771" x1="417.35" y1="776.128" x2="814.289" y2="1273.04" gradientUnits="userSpaceOnUse">
<stop stop-color="#FF1CF7"/>
<stop offset="1" stop-color="#00F0FF"/>
</linearGradient>
<linearGradient id="paint53_linear_116_771" x1="411.361" y1="773.006" x2="775.706" y2="1281.58" gradientUnits="userSpaceOnUse">
<stop stop-color="#FF1CF7"/>
<stop offset="1" stop-color="#00F0FF"/>
</linearGradient>
<linearGradient id="paint54_linear_116_771" x1="405.426" y1="770.86" x2="737.064" y2="1289.06" gradientUnits="userSpaceOnUse">
<stop stop-color="#FF1CF7"/>
<stop offset="1" stop-color="#00F0FF"/>
</linearGradient>
<linearGradient id="paint55_linear_116_771" x1="399.49" y1="769.681" x2="698.424" y2="1295.51" gradientUnits="userSpaceOnUse">
<stop stop-color="#FF1CF7"/>
<stop offset="1" stop-color="#00F0FF"/>
</linearGradient>
<linearGradient id="paint56_linear_116_771" x1="393.493" y1="769.455" x2="659.849" y2="1300.93" gradientUnits="userSpaceOnUse">
<stop stop-color="#FF1CF7"/>
<stop offset="1" stop-color="#00F0FF"/>
</linearGradient>
<linearGradient id="paint57_linear_116_771" x1="387.38" y1="770.166" x2="621.399" y2="1305.35" gradientUnits="userSpaceOnUse">
<stop stop-color="#FF1CF7"/>
<stop offset="1" stop-color="#00F0FF"/>
</linearGradient>
<linearGradient id="paint58_linear_116_771" x1="381.096" y1="771.793" x2="583.132" y2="1308.78" gradientUnits="userSpaceOnUse">
<stop stop-color="#FF1CF7"/>
<stop offset="1" stop-color="#00F0FF"/>
</linearGradient>
<linearGradient id="paint59_linear_116_771" x1="374.59" y1="774.314" x2="545.105" y2="1311.25" gradientUnits="userSpaceOnUse">
<stop stop-color="#FF1CF7"/>
<stop offset="1" stop-color="#00F0FF"/>
</linearGradient>
<linearGradient id="paint60_linear_116_771" x1="367.81" y1="777.702" x2="507.372" y2="1312.79" gradientUnits="userSpaceOnUse">
<stop stop-color="#FF1CF7"/>
<stop offset="1" stop-color="#00F0FF"/>
</linearGradient>
<linearGradient id="paint61_linear_116_771" x1="360.708" y1="781.93" x2="469.985" y2="1313.42" gradientUnits="userSpaceOnUse">
<stop stop-color="#FF1CF7"/>
<stop offset="1" stop-color="#00F0FF"/>
</linearGradient>
<linearGradient id="paint62_linear_116_771" x1="353.237" y1="786.965" x2="432.994" y2="1313.19" gradientUnits="userSpaceOnUse">
<stop stop-color="#FF1CF7"/>
<stop offset="1" stop-color="#00F0FF"/>
</linearGradient>
<linearGradient id="paint63_linear_116_771" x1="345.355" y1="792.773" x2="396.446" y2="1312.13" gradientUnits="userSpaceOnUse">
<stop stop-color="#FF1CF7"/>
<stop offset="1" stop-color="#00F0FF"/>
</linearGradient>
<linearGradient id="paint64_linear_116_771" x1="337.019" y1="799.319" x2="360.385" y2="1310.27" gradientUnits="userSpaceOnUse">
<stop stop-color="#FF1CF7"/>
<stop offset="1" stop-color="#00F0FF"/>
</linearGradient>
<linearGradient id="paint65_linear_116_771" x1="328.192" y1="806.563" x2="324.853" y2="1307.66" gradientUnits="userSpaceOnUse">
<stop stop-color="#FF1CF7"/>
<stop offset="1" stop-color="#00F0FF"/>
</linearGradient>
<linearGradient id="paint66_linear_116_771" x1="318.836" y1="814.466" x2="289.889" y2="1304.35" gradientUnits="userSpaceOnUse">
<stop stop-color="#FF1CF7"/>
<stop offset="1" stop-color="#00F0FF"/>
</linearGradient>
<linearGradient id="paint67_linear_116_771" x1="308.92" y1="822.985" x2="255.527" y2="1300.37" gradientUnits="userSpaceOnUse">
<stop stop-color="#FF1CF7"/>
<stop offset="1" stop-color="#00F0FF"/>
</linearGradient>
<linearGradient id="paint68_linear_116_771" x1="298.413" y1="832.077" x2="221.8" y2="1295.78" gradientUnits="userSpaceOnUse">
<stop stop-color="#FF1CF7"/>
<stop offset="1" stop-color="#00F0FF"/>
</linearGradient>
</defs>
</svg>
