<svg width="333" height="285" viewBox="0 0 333 285" fill="none" xmlns="http://www.w3.org/2000/svg">
<rect width="239.642" height="163.756" rx="11.9821" fill="white"/>
<rect x="24.3644" y="138.593" width="0.399405" height="190.915" transform="rotate(-90 24.3644 138.593)" fill="#EEEEF7"/>
<rect x="24.3636" y="122.218" width="0.399405" height="190.915" transform="rotate(-90 24.3636 122.218)" fill="#EEEEF7"/>
<rect x="24.3636" y="105.842" width="0.399405" height="190.915" transform="rotate(-90 24.3636 105.842)" fill="#EEEEF7"/>
<rect x="24.3636" y="89.4665" width="0.399405" height="190.915" transform="rotate(-90 24.3636 89.4665)" fill="#EEEEF7"/>
<rect x="24.3636" y="73.0909" width="0.399405" height="190.915" transform="rotate(-90 24.3636 73.0909)" fill="#EEEEF7"/>
<rect x="24.3636" y="56.7153" width="0.399405" height="190.915" transform="rotate(-90 24.3636 56.7153)" fill="#EEEEF7"/>
<rect x="24.3636" y="40.3398" width="0.399405" height="190.915" transform="rotate(-90 24.3636 40.3398)" fill="#EEEEF7"/>
<rect x="24.3636" y="23.9642" width="0.399405" height="190.915" transform="rotate(-90 24.3636 23.9642)" fill="#EEEEF7"/>
<path opacity="0.1" d="M144.943 79.8808L172.497 83.2757L194.088 67.5367L215.678 46.5305V138.194H24.3638V128.426L41.2742 118.158L59.1843 108.424L88.2866 114.147L117.389 114.652L144.943 79.8808Z" fill="#EF2A82"/>
<path d="M215.878 46.5305L194.088 66.5007L172.497 82.8763L144.943 79.8808L117.389 114.753L88.2866 114.245L59.1843 108.488L41.2742 118.28L24.3638 128.608" stroke="#EF2A82" stroke-width="1.59762"/>
<path d="M215.878 36.9449L194.088 39.541L172.497 70.0954L144.943 63.1058L117.389 97.2548L88.2864 105.642L59.1841 94.459L41.2741 91.3198L24.5634 115.228" stroke="#0088F0" stroke-width="1.59762"/>
</svg>
