<svg width="1579" height="1054" viewBox="0 0 1579 1054" fill="none" xmlns="http://www.w3.org/2000/svg">
<g opacity="0.07">
<path d="M668.37 143.656C602.398 56.9081 491.646 0 366.147 0C163.929 0 0 147.751 0 330.01C0 356.526 3.46985 382.312 10.0223 407.019L196.479 238.964C214.352 222.855 243.331 222.855 261.205 238.964L411.915 374.801L668.37 143.656Z" fill="#8794BA"/>
<path d="M1558.46 614.301L1290.85 855.5C1272.98 871.61 1244 871.61 1226.13 855.5L1075.42 719.664L892.97 884.105C955.605 985.004 1075.33 1053.21 1212.72 1053.21C1414.94 1053.21 1578.87 905.462 1578.87 723.203C1578.87 685.043 1571.68 648.396 1558.46 614.301Z" fill="#8794BA"/>
</g>
</svg>
